{
  "asset": {
    "generator": "glTF-Transform v4.3.0",
    "version": "2.0",
    "extras": {
      "author": "yanbelmont (https://sketchfab.com/yanbelmont)",
      "license": "CC-BY-4.0 (http://creativecommons.org/licenses/by/4.0/)",
      "source": "https://sketchfab.com/3d-models/minotaur-145f932b3f8b4b7c8fb4feee1bf25404",
      "title": "Minotaur"
    }
  },
  "accessors": [
    {
      "type": "VEC3",
      "componentType": 5126,
      "count": 7418,
      "max": [
        0.27437204122543335,
        -0.9077814817428589,
        5.949608325958252
      ],
      "min": [
        -4.1279144287109375,
        -12.275168418884277,
        -1.6861169338226318
      ],
      "bufferView": 0,
      "byteOffset": 0
    },
    {
      "type": "VEC3",
      "componentType": 5126,
      "count": 7418,
      "bufferView": 0,
      "byteOffset": 12
    },
    {
      "type": "VEC4",
      "componentType": 5126,
      "count": 7418,
      "bufferView": 0,
      "byteOffset": 24
    },
    {
      "type": "SCALAR",
      "componentType": 5123,
      "count": 23838,
      "bufferView": 1,
      "byteOffset": 0
    },
    {
      "type": "SCALAR",
      "componentType": 5123,
      "count": 46038,
      "bufferView": 1,
      "byteOffset": 47676
    },
    {
      "type": "SCALAR",
      "componentType": 5123,
      "count": 34488,
      "bufferView": 1,
      "byteOffset": 139752
    },
    {
      "type": "SCALAR",
      "componentType": 5123,
      "count": 30312,
      "bufferView": 1,
      "byteOffset": 208728
    },
    {
      "type": "SCALAR",
      "componentType": 5123,
      "count": 36060,
      "bufferView": 1,
      "byteOffset": 269352
    },
    {
      "type": "SCALAR",
      "componentType": 5123,
      "count": 34263,
      "bufferView": 1,
      "byteOffset": 341472
    },
    {
      "type": "SCALAR",
      "componentType": 5123,
      "count": 36684,
      "bufferView": 1,
      "byteOffset": 410000
    },
    {
      "type": "SCALAR",
      "componentType": 5123,
      "count": 40938,
      "bufferView": 1,
      "byteOffset": 483368
    },
    {
      "type": "SCALAR",
      "componentType": 5123,
      "count": 28791,
      "bufferView": 1,
      "byteOffset": 565244
    },
    {
      "type": "SCALAR",
      "componentType": 5123,
      "count": 37878,
      "bufferView": 1,
      "byteOffset": 622828
    },
    {
      "type": "SCALAR",
      "componentType": 5123,
      "count": 25932,
      "bufferView": 1,
      "byteOffset": 698584
    },
    {
      "type": "SCALAR",
      "componentType": 5123,
      "count": 516,
      "bufferView": 1,
      "byteOffset": 750448
    },
    {
      "type": "SCALAR",
      "componentType": 5123,
      "count": 21057,
      "bufferView": 1,
      "byteOffset": 751480
    },
    {
      "type": "SCALAR",
      "componentType": 5123,
      "count": 37308,
      "bufferView": 1,
      "byteOffset": 793596
    },
    {
      "type": "SCALAR",
      "componentType": 5123,
      "count": 35241,
      "bufferView": 1,
      "byteOffset": 868212
    },
    {
      "type": "SCALAR",
      "componentType": 5123,
      "count": 28278,
      "bufferView": 1,
      "byteOffset": 938696
    },
    {
      "type": "SCALAR",
      "componentType": 5123,
      "count": 1824,
      "bufferView": 1,
      "byteOffset": 995252
    },
    {
      "type": "VEC3",
      "componentType": 5126,
      "count": 14697,
      "max": [
        2.5201034545898438,
        0.752508819103241,
        5.969302654266357
      ],
      "min": [
        -4.126357555389404,
        -12.137303352355957,
        -1.4530385732650757
      ],
      "bufferView": 2,
      "byteOffset": 0
    },
    {
      "type": "VEC3",
      "componentType": 5126,
      "count": 14697,
      "bufferView": 2,
      "byteOffset": 12
    },
    {
      "type": "VEC4",
      "componentType": 5126,
      "count": 14697,
      "bufferView": 2,
      "byteOffset": 24
    },
    {
      "type": "VEC3",
      "componentType": 5126,
      "count": 11201,
      "max": [
        2.7064929008483887,
        -0.7763180136680603,
        5.14699125289917
      ],
      "min": [
        -4.302645683288574,
        -12.132309913635254,
        -1.2274434566497803
      ],
      "bufferView": 3,
      "byteOffset": 0
    },
    {
      "type": "VEC3",
      "componentType": 5126,
      "count": 11201,
      "bufferView": 3,
      "byteOffset": 12
    },
    {
      "type": "VEC4",
      "componentType": 5126,
      "count": 11201,
      "bufferView": 3,
      "byteOffset": 24
    },
    {
      "type": "VEC3",
      "componentType": 5126,
      "count": 10218,
      "max": [
        2.5201034545898438,
        -3.043653964996338,
        2.0035672187805176
      ],
      "min": [
        -4.302645683288574,
        -12.111598014831543,
        -1.3449804782867432
      ],
      "bufferView": 4,
      "byteOffset": 0
    },
    {
      "type": "VEC3",
      "componentType": 5126,
      "count": 10218,
      "bufferView": 4,
      "byteOffset": 12
    },
    {
      "type": "VEC4",
      "componentType": 5126,
      "count": 10218,
      "bufferView": 4,
      "byteOffset": 24
    },
    {
      "type": "VEC3",
      "componentType": 5126,
      "count": 11728,
      "max": [
        3.889357089996338,
        -0.2720872461795807,
        2.8294782638549805
      ],
      "min": [
        -1.1676427125930786,
        -8.522109031677246,
        -1.7350481748580933
      ],
      "bufferView": 5,
      "byteOffset": 0
    },
    {
      "type": "VEC3",
      "componentType": 5126,
      "count": 11728,
      "bufferView": 5,
      "byteOffset": 12
    },
    {
      "type": "VEC4",
      "componentType": 5126,
      "count": 11728,
      "bufferView": 5,
      "byteOffset": 24
    },
    {
      "type": "VEC3",
      "componentType": 5126,
      "count": 10963,
      "max": [
        3.9304261207580566,
        1.3892334699630737,
        2.5700204372406006
      ],
      "min": [
        -1.9500205516815186,
        -5.4845170974731445,
        -1.744986891746521
      ],
      "bufferView": 6,
      "byteOffset": 0
    },
    {
      "type": "VEC3",
      "componentType": 5126,
      "count": 10963,
      "bufferView": 6,
      "byteOffset": 12
    },
    {
      "type": "VEC4",
      "componentType": 5126,
      "count": 10963,
      "bufferView": 6,
      "byteOffset": 24
    },
    {
      "type": "VEC3",
      "componentType": 5126,
      "count": 12307,
      "max": [
        2.8174262046813965,
        1.3883371353149414,
        2.5700204372406006
      ],
      "min": [
        -2.537415027618408,
        -2.0761919021606445,
        -1.9338537454605103
      ],
      "bufferView": 7,
      "byteOffset": 0
    },
    {
      "type": "VEC3",
      "componentType": 5126,
      "count": 12307,
      "bufferView": 7,
      "byteOffset": 12
    },
    {
      "type": "VEC4",
      "componentType": 5126,
      "count": 12307,
      "bufferView": 7,
      "byteOffset": 24
    },
    {
      "type": "VEC3",
      "componentType": 5126,
      "count": 14292,
      "max": [
        3.152540683746338,
        1.3892334699630737,
        2.2739202976226807
      ],
      "min": [
        -2.9025607109069824,
        -12.131622314453125,
        -1.9338537454605103
      ],
      "bufferView": 8,
      "byteOffset": 0
    },
    {
      "type": "VEC3",
      "componentType": 5126,
      "count": 14292,
      "bufferView": 8,
      "byteOffset": 12
    },
    {
      "type": "VEC4",
      "componentType": 5126,
      "count": 14292,
      "bufferView": 8,
      "byteOffset": 24
    },
    {
      "type": "VEC3",
      "componentType": 5126,
      "count": 9310,
      "max": [
        4.1325860023498535,
        -2.2072150707244873,
        2.9657633304595947
      ],
      "min": [
        -1.8187226057052612,
        -9.056801795959473,
        -3.172273635864258
      ],
      "bufferView": 9,
      "byteOffset": 0
    },
    {
      "type": "VEC3",
      "componentType": 5126,
      "count": 9310,
      "bufferView": 9,
      "byteOffset": 12
    },
    {
      "type": "VEC4",
      "componentType": 5126,
      "count": 9310,
      "bufferView": 9,
      "byteOffset": 24
    },
    {
      "type": "VEC3",
      "componentType": 5126,
      "count": 13445,
      "max": [
        4.1325860023498535,
        0.5231635570526123,
        3.4899656772613525
      ],
      "min": [
        -3.535661458969116,
        -12.137303352355957,
        -3.172273635864258
      ],
      "bufferView": 10,
      "byteOffset": 0
    },
    {
      "type": "VEC3",
      "componentType": 5126,
      "count": 13445,
      "bufferView": 10,
      "byteOffset": 12
    },
    {
      "type": "VEC4",
      "componentType": 5126,
      "count": 13445,
      "bufferView": 10,
      "byteOffset": 24
    },
    {
      "type": "VEC3",
      "componentType": 5126,
      "count": 9500,
      "max": [
        0.7185466885566711,
        -2.8738229274749756,
        3.727498769760132
      ],
      "min": [
        -4.252920627593994,
        -12.21096420288086,
        -1.4380522966384888
      ],
      "bufferView": 11,
      "byteOffset": 0
    },
    {
      "type": "VEC3",
      "componentType": 5126,
      "count": 9500,
      "bufferView": 11,
      "byteOffset": 12
    },
    {
      "type": "VEC4",
      "componentType": 5126,
      "count": 9500,
      "bufferView": 11,
      "byteOffset": 24
    },
    {
      "type": "VEC3",
      "componentType": 5126,
      "count": 90,
      "max": [
        0.5760579705238342,
        0.599732518196106,
        -0.6167128086090088
      ],
      "min": [
        -0.7821682095527649,
        0.1774366796016693,
        -1.2116563320159912
      ],
      "bufferView": 12,
      "byteOffset": 0
    },
    {
      "type": "VEC3",
      "componentType": 5126,
      "count": 90,
      "bufferView": 12,
      "byteOffset": 12
    },
    {
      "type": "VEC4",
      "componentType": 5126,
      "count": 90,
      "bufferView": 12,
      "byteOffset": 24
    },
    {
      "type": "VEC3",
      "componentType": 5126,
      "count": 5982,
      "max": [
        -0.09911317378282547,
        2.1745240688323975,
        0.7852177023887634
      ],
      "min": [
        -2.618752956390381,
        0.5328561067581177,
        -1.0945481061935425
      ],
      "bufferView": 13,
      "byteOffset": 0
    },
    {
      "type": "VEC3",
      "componentType": 5126,
      "count": 5982,
      "bufferView": 13,
      "byteOffset": 12
    },
    {
      "type": "VEC4",
      "componentType": 5126,
      "count": 5982,
      "bufferView": 13,
      "byteOffset": 24
    },
    {
      "type": "VEC3",
      "componentType": 5126,
      "count": 12149,
      "max": [
        2.620347499847412,
        1.4425328969955444,
        0.7852177023887634
      ],
      "min": [
        -2.4830615520477295,
        0.5328561067581177,
        -1.045101523399353
      ],
      "bufferView": 14,
      "byteOffset": 0
    },
    {
      "type": "VEC3",
      "componentType": 5126,
      "count": 12149,
      "bufferView": 14,
      "byteOffset": 12
    },
    {
      "type": "VEC4",
      "componentType": 5126,
      "count": 12149,
      "bufferView": 14,
      "byteOffset": 24
    },
    {
      "type": "VEC3",
      "componentType": 5126,
      "count": 10474,
      "max": [
        2.624443769454956,
        1.6815776824951172,
        0.13951906561851501
      ],
      "min": [
        0.46645984053611755,
        0.5322543382644653,
        -1.730063557624817
      ],
      "bufferView": 15,
      "byteOffset": 0
    },
    {
      "type": "VEC3",
      "componentType": 5126,
      "count": 10474,
      "bufferView": 15,
      "byteOffset": 12
    },
    {
      "type": "VEC4",
      "componentType": 5126,
      "count": 10474,
      "bufferView": 15,
      "byteOffset": 24
    },
    {
      "type": "VEC3",
      "componentType": 5126,
      "count": 11665,
      "max": [
        2.6400671005249023,
        2.1539206504821777,
        0.6848248243331909
      ],
      "min": [
        -2.5906002521514893,
        0.5467631816864014,
        -2.353911876678467
      ],
      "bufferView": 16,
      "byteOffset": 0
    },
    {
      "type": "VEC3",
      "componentType": 5126,
      "count": 11665,
      "bufferView": 16,
      "byteOffset": 12
    },
    {
      "type": "VEC4",
      "componentType": 5126,
      "count": 11665,
      "bufferView": 16,
      "byteOffset": 24
    },
    {
      "type": "VEC3",
      "componentType": 5126,
      "count": 399,
      "max": [
        5.127680778503418,
        -11.909879684448242,
        5.091267108917236
      ],
      "min": [
        -5.038473129272461,
        -13.326075553894043,
        -4.86195182800293
      ],
      "bufferView": 17,
      "byteOffset": 0
    },
    {
      "type": "VEC3",
      "componentType": 5126,
      "count": 399,
      "bufferView": 17,
      "byteOffset": 12
    },
    {
      "type": "VEC4",
      "componentType": 5126,
      "count": 399,
      "bufferView": 17,
      "byteOffset": 24
    }
  ],
  "bufferViews": [
    {
      "buffer": 0,
      "byteOffset": 0,
      "byteLength": 296720,
      "byteStride": 40,
      "target": 34962
    },
    {
      "buffer": 0,
      "byteOffset": 296720,
      "byteLength": 998900,
      "target": 34963
    },
    {
      "buffer": 0,
      "byteOffset": 1295620,
      "byteLength": 587880,
      "byteStride": 40,
      "target": 34962
    },
    {
      "buffer": 0,
      "byteOffset": 1883500,
      "byteLength": 448040,
      "byteStride": 40,
      "target": 34962
    },
    {
      "buffer": 0,
      "byteOffset": 2331540,
      "byteLength": 408720,
      "byteStride": 40,
      "target": 34962
    },
    {
      "buffer": 0,
      "byteOffset": 2740260,
      "byteLength": 469120,
      "byteStride": 40,
      "target": 34962
    },
    {
      "buffer": 0,
      "byteOffset": 3209380,
      "byteLength": 438520,
      "byteStride": 40,
      "target": 34962
    },
    {
      "buffer": 0,
      "byteOffset": 3647900,
      "byteLength": 492280,
      "byteStride": 40,
      "target": 34962
    },
    {
      "buffer": 0,
      "byteOffset": 4140180,
      "byteLength": 571680,
      "byteStride": 40,
      "target": 34962
    },
    {
      "buffer": 0,
      "byteOffset": 4711860,
      "byteLength": 372400,
      "byteStride": 40,
      "target": 34962
    },
    {
      "buffer": 0,
      "byteOffset": 5084260,
      "byteLength": 537800,
      "byteStride": 40,
      "target": 34962
    },
    {
      "buffer": 0,
      "byteOffset": 5622060,
      "byteLength": 380000,
      "byteStride": 40,
      "target": 34962
    },
    {
      "buffer": 0,
      "byteOffset": 6002060,
      "byteLength": 3600,
      "byteStride": 40,
      "target": 34962
    },
    {
      "buffer": 0,
      "byteOffset": 6005660,
      "byteLength": 239280,
      "byteStride": 40,
      "target": 34962
    },
    {
      "buffer": 0,
      "byteOffset": 6244940,
      "byteLength": 485960,
      "byteStride": 40,
      "target": 34962
    },
    {
      "buffer": 0,
      "byteOffset": 6730900,
      "byteLength": 418960,
      "byteStride": 40,
      "target": 34962
    },
    {
      "buffer": 0,
      "byteOffset": 7149860,
      "byteLength": 466600,
      "byteStride": 40,
      "target": 34962
    },
    {
      "buffer": 0,
      "byteOffset": 7616460,
      "byteLength": 15960,
      "byteStride": 40,
      "target": 34962
    }
  ],
  "buffers": [
    {
      "uri": "scene.bin",
      "byteLength": 7632420
    }
  ],
  "materials": [
    {
      "name": "material0",
      "doubleSided": true,
      "pbrMetallicRoughness": {
        "baseColorFactor": [
          0.5,
          0.5,
          0.5,
          1
        ],
        "metallicFactor": 0
      }
    },
    {
      "name": "material0_0",
      "doubleSided": true,
      "pbrMetallicRoughness": {
        "baseColorFactor": [
          0.5,
          0.5,
          0.5,
          1
        ],
        "metallicFactor": 0
      }
    },
    {
      "name": "material0_1",
      "doubleSided": true,
      "pbrMetallicRoughness": {
        "baseColorFactor": [
          0.5,
          0.5,
          0.5,
          1
        ],
        "metallicFactor": 0
      }
    },
    {
      "name": "material0_2",
      "doubleSided": true,
      "pbrMetallicRoughness": {
        "baseColorFactor": [
          0.5,
          0.5,
          0.5,
          1
        ],
        "metallicFactor": 0
      }
    }
  ],
  "meshes": [
    {
      "name": "minotaur43_material0_0",
      "primitives": [
        {
          "attributes": {
            "COLOR_0": 2,
            "NORMAL": 1,
            "POSITION": 0
          },
          "mode": 4,
          "material": 0,
          "indices": 3
        }
      ]
    },
    {
      "name": "minotaur43_material0_0",
      "primitives": [
        {
          "attributes": {
            "COLOR_0": 22,
            "NORMAL": 21,
            "POSITION": 20
          },
          "mode": 4,
          "material": 0,
          "indices": 4
        }
      ]
    },
    {
      "name": "minotaur43_material0_0",
      "primitives": [
        {
          "attributes": {
            "COLOR_0": 25,
            "NORMAL": 24,
            "POSITION": 23
          },
          "mode": 4,
          "material": 0,
          "indices": 5
        }
      ]
    },
    {
      "name": "minotaur43_material0_0",
      "primitives": [
        {
          "attributes": {
            "COLOR_0": 28,
            "NORMAL": 27,
            "POSITION": 26
          },
          "mode": 4,
          "material": 0,
          "indices": 6
        }
      ]
    },
    {
      "name": "minotaur43_material0_0",
      "primitives": [
        {
          "attributes": {
            "COLOR_0": 31,
            "NORMAL": 30,
            "POSITION": 29
          },
          "mode": 4,
          "material": 0,
          "indices": 7
        }
      ]
    },
    {
      "name": "minotaur43_material0_0",
      "primitives": [
        {
          "attributes": {
            "COLOR_0": 34,
            "NORMAL": 33,
            "POSITION": 32
          },
          "mode": 4,
          "material": 0,
          "indices": 8
        }
      ]
    },
    {
      "name": "minotaur43_material0_0",
      "primitives": [
        {
          "attributes": {
            "COLOR_0": 37,
            "NORMAL": 36,
            "POSITION": 35
          },
          "mode": 4,
          "material": 0,
          "indices": 9
        }
      ]
    },
    {
      "name": "minotaur43_material0_0",
      "primitives": [
        {
          "attributes": {
            "COLOR_0": 40,
            "NORMAL": 39,
            "POSITION": 38
          },
          "mode": 4,
          "material": 0,
          "indices": 10
        }
      ]
    },
    {
      "name": "minotaur43_material0_0",
      "primitives": [
        {
          "attributes": {
            "COLOR_0": 43,
            "NORMAL": 42,
            "POSITION": 41
          },
          "mode": 4,
          "material": 0,
          "indices": 11
        }
      ]
    },
    {
      "name": "minotaur43_material0_0",
      "primitives": [
        {
          "attributes": {
            "COLOR_0": 46,
            "NORMAL": 45,
            "POSITION": 44
          },
          "mode": 4,
          "material": 0,
          "indices": 12
        }
      ]
    },
    {
      "name": "minotaur43_material0_0",
      "primitives": [
        {
          "attributes": {
            "COLOR_0": 49,
            "NORMAL": 48,
            "POSITION": 47
          },
          "mode": 4,
          "material": 0,
          "indices": 13
        }
      ]
    },
    {
      "name": "Olhos_material0_0",
      "primitives": [
        {
          "attributes": {
            "COLOR_0": 52,
            "NORMAL": 51,
            "POSITION": 50
          },
          "mode": 4,
          "material": 1,
          "indices": 14
        }
      ]
    },
    {
      "name": "Chifre_material0_0",
      "primitives": [
        {
          "attributes": {
            "COLOR_0": 55,
            "NORMAL": 54,
            "POSITION": 53
          },
          "mode": 4,
          "material": 2,
          "indices": 15
        }
      ]
    },
    {
      "name": "Chifre_material0_0",
      "primitives": [
        {
          "attributes": {
            "COLOR_0": 58,
            "NORMAL": 57,
            "POSITION": 56
          },
          "mode": 4,
          "material": 2,
          "indices": 16
        }
      ]
    },
    {
      "name": "Chifre_material0_0",
      "primitives": [
        {
          "attributes": {
            "COLOR_0": 61,
            "NORMAL": 60,
            "POSITION": 59
          },
          "mode": 4,
          "material": 2,
          "indices": 17
        }
      ]
    },
    {
      "name": "Chifre_material0_0",
      "primitives": [
        {
          "attributes": {
            "COLOR_0": 64,
            "NORMAL": 63,
            "POSITION": 62
          },
          "mode": 4,
          "material": 2,
          "indices": 18
        }
      ]
    },
    {
      "name": "Base_material0_0",
      "primitives": [
        {
          "attributes": {
            "COLOR_0": 67,
            "NORMAL": 66,
            "POSITION": 65
          },
          "mode": 4,
          "material": 3,
          "indices": 19
        }
      ]
    }
  ],
  "nodes": [
    {
      "name": "Sketchfab_model",
      "rotation": [
        -0.7071067811865475,
        0,
        0,
        0.7071067811865476
      ],
      "children": [
        1
      ]
    },
    {
      "name": "67661cb8ec594d979e7a7f37bb7e7f9c.fbx",
      "rotation": [
        0.7071067811865475,
        0,
        0,
        0.7071067811865476
      ],
      "children": [
        2
      ]
    },
    {
      "name": "RootNode",
      "children": [
        3,
        15,
        17,
        22
      ]
    },
    {
      "name": "minotaur43",
      "children": [
        4,
        5,
        6,
        7,
        8,
        9,
        10,
        11,
        12,
        13,
        14
      ]
    },
    {
      "name": "minotaur43_material0_0",
      "mesh": 0
    },
    {
      "name": "minotaur43_material0_0",
      "mesh": 1
    },
    {
      "name": "minotaur43_material0_0",
      "mesh": 2
    },
    {
      "name": "minotaur43_material0_0",
      "mesh": 3
    },
    {
      "name": "minotaur43_material0_0",
      "mesh": 4
    },
    {
      "name": "minotaur43_material0_0",
      "mesh": 5
    },
    {
      "name": "minotaur43_material0_0",
      "mesh": 6
    },
    {
      "name": "minotaur43_material0_0",
      "mesh": 7
    },
    {
      "name": "minotaur43_material0_0",
      "mesh": 8
    },
    {
      "name": "minotaur43_material0_0",
      "mesh": 9
    },
    {
      "name": "minotaur43_material0_0",
      "mesh": 10
    },
    {
      "name": "Olhos",
      "children": [
        16
      ]
    },
    {
      "name": "Olhos_material0_0",
      "mesh": 11
    },
    {
      "name": "Chifre",
      "children": [
        18,
        19,
        20,
        21
      ]
    },
    {
      "name": "Chifre_material0_0",
      "mesh": 12
    },
    {
      "name": "Chifre_material0_0",
      "mesh": 13
    },
    {
      "name": "Chifre_material0_0",
      "mesh": 14
    },
    {
      "name": "Chifre_material0_0",
      "mesh": 15
    },
    {
      "name": "Base",
      "children": [
        23
      ]
    },
    {
      "name": "Base_material0_0",
      "mesh": 16
    }
  ],
  "scenes": [
    {
      "name": "Sketchfab_Scene",
      "nodes": [
        0
      ]
    }
  ],
  "scene": 0
}