{
  "asset": {
    "generator": "glTF-Transform v4.3.0",
    "version": "2.0",
    "extras": {
      "author": "yanbelmont (https://sketchfab.com/yanbelmont)",
      "license": "CC-BY-4.0 (http://creativecommons.org/licenses/by/4.0/)",
      "source": "https://sketchfab.com/3d-models/minotaur-145f932b3f8b4b7c8fb4feee1bf25404",
      "title": "Minotaur"
    }
  },
  "accessors": [
    {
      "type": "VEC3",
      "componentType": 5126,
      "count": 394,
      "max": [
        0.2534869313240051,
        -0.9570255279541016,
        5.947025775909424
      ],
      "min": [
        -4.00706672668457,
        -12.280688285827637,
        -1.6431825160980225
      ],
      "bufferView": 0,
      "byteOffset": 0
    },
    {
      "type": "VEC3",
      "componentType": 5126,
      "count": 394,
      "bufferView": 0,
      "byteOffset": 12
    },
    {
      "type": "VEC4",
      "componentType": 5126,
      "count": 394,
      "bufferView": 0,
      "byteOffset": 24
    },
    {
      "type": "SCALAR",
      "componentType": 5123,
      "count": 2043,
      "bufferView": 1,
      "byteOffset": 0
    },
    {
      "type": "SCALAR",
      "componentType": 5123,
      "count": 2727,
      "bufferView": 1,
      "byteOffset": 4088
    },
    {
      "type": "SCALAR",
      "componentType": 5123,
      "count": 1935,
      "bufferView": 1,
      "byteOffset": 9544
    },
    {
      "type": "SCALAR",
      "componentType": 5123,
      "count": 1947,
      "bufferView": 1,
      "byteOffset": 13416
    },
    {
      "type": "SCALAR",
      "componentType": 5123,
      "count": 2214,
      "bufferView": 1,
      "byteOffset": 17312
    },
    {
      "type": "SCALAR",
      "componentType": 5123,
      "count": 2436,
      "bufferView": 1,
      "byteOffset": 21740
    },
    {
      "type": "SCALAR",
      "componentType": 5123,
      "count": 1911,
      "bufferView": 1,
      "byteOffset": 26612
    },
    {
      "type": "SCALAR",
      "componentType": 5123,
      "count": 1845,
      "bufferView": 1,
      "byteOffset": 30436
    },
    {
      "type": "SCALAR",
      "componentType": 5123,
      "count": 2073,
      "bufferView": 1,
      "byteOffset": 34128
    },
    {
      "type": "SCALAR",
      "componentType": 5123,
      "count": 1878,
      "bufferView": 1,
      "byteOffset": 38276
    },
    {
      "type": "SCALAR",
      "componentType": 5123,
      "count": 963,
      "bufferView": 1,
      "byteOffset": 42032
    },
    {
      "type": "SCALAR",
      "componentType": 5123,
      "count": 516,
      "bufferView": 1,
      "byteOffset": 43960
    },
    {
      "type": "SCALAR",
      "componentType": 5123,
      "count": 3822,
      "bufferView": 1,
      "byteOffset": 44992
    },
    {
      "type": "SCALAR",
      "componentType": 5123,
      "count": 3792,
      "bufferView": 1,
      "byteOffset": 52636
    },
    {
      "type": "SCALAR",
      "componentType": 5123,
      "count": 5292,
      "bufferView": 1,
      "byteOffset": 60220
    },
    {
      "type": "SCALAR",
      "componentType": 5123,
      "count": 1440,
      "bufferView": 1,
      "byteOffset": 70804
    },
    {
      "type": "SCALAR",
      "componentType": 5123,
      "count": 1824,
      "bufferView": 1,
      "byteOffset": 73684
    },
    {
      "type": "VEC3",
      "componentType": 5126,
      "count": 556,
      "max": [
        2.4528374671936035,
        0.7507947087287903,
        5.91057825088501
      ],
      "min": [
        -4.125638008117676,
        -12.137303352355957,
        -1.2624924182891846
      ],
      "bufferView": 2,
      "byteOffset": 0
    },
    {
      "type": "VEC3",
      "componentType": 5126,
      "count": 556,
      "bufferView": 2,
      "byteOffset": 12
    },
    {
      "type": "VEC4",
      "componentType": 5126,
      "count": 556,
      "bufferView": 2,
      "byteOffset": 24
    },
    {
      "type": "VEC3",
      "componentType": 5126,
      "count": 424,
      "max": [
        2.4690005779266357,
        -1.052560806274414,
        3.537193775177002
      ],
      "min": [
        -4.302645683288574,
        -12.12951946258545,
        -1.3372942209243774
      ],
      "bufferView": 3,
      "byteOffset": 0
    },
    {
      "type": "VEC3",
      "componentType": 5126,
      "count": 424,
      "bufferView": 3,
      "byteOffset": 12
    },
    {
      "type": "VEC4",
      "componentType": 5126,
      "count": 424,
      "bufferView": 3,
      "byteOffset": 24
    },
    {
      "type": "VEC3",
      "componentType": 5126,
      "count": 433,
      "max": [
        2.5199074745178223,
        -3.157482385635376,
        2.020167589187622
      ],
      "min": [
        -4.2659196853637695,
        -11.999823570251465,
        -1.3339816331863403
      ],
      "bufferView": 4,
      "byteOffset": 0
    },
    {
      "type": "VEC3",
      "componentType": 5126,
      "count": 433,
      "bufferView": 4,
      "byteOffset": 12
    },
    {
      "type": "VEC4",
      "componentType": 5126,
      "count": 433,
      "bufferView": 4,
      "byteOffset": 24
    },
    {
      "type": "VEC3",
      "componentType": 5126,
      "count": 480,
      "max": [
        3.824087619781494,
        -0.2720872461795807,
        2.7466742992401123
      ],
      "min": [
        -1.1564167737960815,
        -7.930289268493652,
        -1.7038352489471436
      ],
      "bufferView": 5,
      "byteOffset": 0
    },
    {
      "type": "VEC3",
      "componentType": 5126,
      "count": 480,
      "bufferView": 5,
      "byteOffset": 12
    },
    {
      "type": "VEC4",
      "componentType": 5126,
      "count": 480,
      "bufferView": 5,
      "byteOffset": 24
    },
    {
      "type": "VEC3",
      "componentType": 5126,
      "count": 511,
      "max": [
        3.8313496112823486,
        1.3842662572860718,
        2.5589795112609863
      ],
      "min": [
        -1.796985387802124,
        -5.325533390045166,
        -1.737707495689392
      ],
      "bufferView": 6,
      "byteOffset": 0
    },
    {
      "type": "VEC3",
      "componentType": 5126,
      "count": 511,
      "bufferView": 6,
      "byteOffset": 12
    },
    {
      "type": "VEC4",
      "componentType": 5126,
      "count": 511,
      "bufferView": 6,
      "byteOffset": 24
    },
    {
      "type": "VEC3",
      "componentType": 5126,
      "count": 465,
      "max": [
        2.815324068069458,
        1.3555327653884888,
        2.429598808288574
      ],
      "min": [
        -2.329925537109375,
        -1.827256202697754,
        -1.9169539213180542
      ],
      "bufferView": 7,
      "byteOffset": 0
    },
    {
      "type": "VEC3",
      "componentType": 5126,
      "count": 465,
      "bufferView": 7,
      "byteOffset": 12
    },
    {
      "type": "VEC4",
      "componentType": 5126,
      "count": 465,
      "bufferView": 7,
      "byteOffset": 24
    },
    {
      "type": "VEC3",
      "componentType": 5126,
      "count": 509,
      "max": [
        2.854612350463867,
        1.3725471496582031,
        2.268150806427002
      ],
      "min": [
        -2.9002432823181152,
        -9.19940185546875,
        -1.9003669023513794
      ],
      "bufferView": 8,
      "byteOffset": 0
    },
    {
      "type": "VEC3",
      "componentType": 5126,
      "count": 509,
      "bufferView": 8,
      "byteOffset": 12
    },
    {
      "type": "VEC4",
      "componentType": 5126,
      "count": 509,
      "bufferView": 8,
      "byteOffset": 24
    },
    {
      "type": "VEC3",
      "componentType": 5126,
      "count": 426,
      "max": [
        4.114034175872803,
        -2.775402784347534,
        2.9342539310455322
      ],
      "min": [
        -1.708644986152649,
        -8.977434158325195,
        -3.1487677097320557
      ],
      "bufferView": 9,
      "byteOffset": 0
    },
    {
      "type": "VEC3",
      "componentType": 5126,
      "count": 426,
      "bufferView": 9,
      "byteOffset": 12
    },
    {
      "type": "VEC4",
      "componentType": 5126,
      "count": 426,
      "bufferView": 9,
      "byteOffset": 24
    },
    {
      "type": "VEC3",
      "componentType": 5126,
      "count": 578,
      "max": [
        4.056694984436035,
        -1.5472825765609741,
        3.3559365272521973
      ],
      "min": [
        -3.4915270805358887,
        -12.129100799560547,
        -3.1346945762634277
      ],
      "bufferView": 10,
      "byteOffset": 0
    },
    {
      "type": "VEC3",
      "componentType": 5126,
      "count": 578,
      "bufferView": 10,
      "byteOffset": 12
    },
    {
      "type": "VEC4",
      "componentType": 5126,
      "count": 578,
      "bufferView": 10,
      "byteOffset": 24
    },
    {
      "type": "VEC3",
      "componentType": 5126,
      "count": 320,
      "max": [
        0.19765926897525787,
        -3.704157590866089,
        3.6894145011901855
      ],
      "min": [
        -4.248003005981445,
        -11.282719612121582,
        -1.4355634450912476
      ],
      "bufferView": 11,
      "byteOffset": 0
    },
    {
      "type": "VEC3",
      "componentType": 5126,
      "count": 320,
      "bufferView": 11,
      "byteOffset": 12
    },
    {
      "type": "VEC4",
      "componentType": 5126,
      "count": 320,
      "bufferView": 11,
      "byteOffset": 24
    },
    {
      "type": "VEC3",
      "componentType": 5126,
      "count": 90,
      "max": [
        0.5760579705238342,
        0.599732518196106,
        -0.6167128086090088
      ],
      "min": [
        -0.7821682095527649,
        0.1774366796016693,
        -1.2116563320159912
      ],
      "bufferView": 12,
      "byteOffset": 0
    },
    {
      "type": "VEC3",
      "componentType": 5126,
      "count": 90,
      "bufferView": 12,
      "byteOffset": 12
    },
    {
      "type": "VEC4",
      "componentType": 5126,
      "count": 90,
      "bufferView": 12,
      "byteOffset": 24
    },
    {
      "type": "VEC3",
      "componentType": 5126,
      "count": 679,
      "max": [
        -0.1003735139966011,
        2.1745240688323975,
        0.7847141027450562
      ],
      "min": [
        -2.6222991943359375,
        0.5381534695625305,
        -1.0945481061935425
      ],
      "bufferView": 13,
      "byteOffset": 0
    },
    {
      "type": "VEC3",
      "componentType": 5126,
      "count": 679,
      "bufferView": 13,
      "byteOffset": 12
    },
    {
      "type": "VEC4",
      "componentType": 5126,
      "count": 679,
      "bufferView": 13,
      "byteOffset": 24
    },
    {
      "type": "VEC3",
      "componentType": 5126,
      "count": 700,
      "max": [
        2.6096484661102295,
        1.4351550340652466,
        0.763812243938446
      ],
      "min": [
        -2.3416061401367188,
        0.5339462757110596,
        -1.02549147605896
      ],
      "bufferView": 14,
      "byteOffset": 0
    },
    {
      "type": "VEC3",
      "componentType": 5126,
      "count": 700,
      "bufferView": 14,
      "byteOffset": 12
    },
    {
      "type": "VEC4",
      "componentType": 5126,
      "count": 700,
      "bufferView": 14,
      "byteOffset": 24
    },
    {
      "type": "VEC3",
      "componentType": 5126,
      "count": 958,
      "max": [
        2.6231229305267334,
        1.6690077781677246,
        0.13929568231105804
      ],
      "min": [
        0.46498245000839233,
        0.5296139717102051,
        -1.6912729740142822
      ],
      "bufferView": 15,
      "byteOffset": 0
    },
    {
      "type": "VEC3",
      "componentType": 5126,
      "count": 958,
      "bufferView": 15,
      "byteOffset": 12
    },
    {
      "type": "VEC4",
      "componentType": 5126,
      "count": 958,
      "bufferView": 15,
      "byteOffset": 24
    },
    {
      "type": "VEC3",
      "componentType": 5126,
      "count": 325,
      "max": [
        2.64397931098938,
        2.153440475463867,
        0.5666556358337402
      ],
      "min": [
        -0.7767181396484375,
        0.5617672801017761,
        -2.353911876678467
      ],
      "bufferView": 16,
      "byteOffset": 0
    },
    {
      "type": "VEC3",
      "componentType": 5126,
      "count": 325,
      "bufferView": 16,
      "byteOffset": 12
    },
    {
      "type": "VEC4",
      "componentType": 5126,
      "count": 325,
      "bufferView": 16,
      "byteOffset": 24
    },
    {
      "type": "VEC3",
      "componentType": 5126,
      "count": 399,
      "max": [
        5.127680778503418,
        -11.909879684448242,
        5.091267108917236
      ],
      "min": [
        -5.038473129272461,
        -13.326075553894043,
        -4.86195182800293
      ],
      "bufferView": 17,
      "byteOffset": 0
    },
    {
      "type": "VEC3",
      "componentType": 5126,
      "count": 399,
      "bufferView": 17,
      "byteOffset": 12
    },
    {
      "type": "VEC4",
      "componentType": 5126,
      "count": 399,
      "bufferView": 17,
      "byteOffset": 24
    }
  ],
  "bufferViews": [
    {
      "buffer": 0,
      "byteOffset": 0,
      "byteLength": 15760,
      "byteStride": 40,
      "target": 34962
    },
    {
      "buffer": 0,
      "byteOffset": 15760,
      "byteLength": 77332,
      "target": 34963
    },
    {
      "buffer": 0,
      "byteOffset": 93092,
      "byteLength": 22240,
      "byteStride": 40,
      "target": 34962
    },
    {
      "buffer": 0,
      "byteOffset": 115332,
      "byteLength": 16960,
      "byteStride": 40,
      "target": 34962
    },
    {
      "buffer": 0,
      "byteOffset": 132292,
      "byteLength": 17320,
      "byteStride": 40,
      "target": 34962
    },
    {
      "buffer": 0,
      "byteOffset": 149612,
      "byteLength": 19200,
      "byteStride": 40,
      "target": 34962
    },
    {
      "buffer": 0,
      "byteOffset": 168812,
      "byteLength": 20440,
      "byteStride": 40,
      "target": 34962
    },
    {
      "buffer": 0,
      "byteOffset": 189252,
      "byteLength": 18600,
      "byteStride": 40,
      "target": 34962
    },
    {
      "buffer": 0,
      "byteOffset": 207852,
      "byteLength": 20360,
      "byteStride": 40,
      "target": 34962
    },
    {
      "buffer": 0,
      "byteOffset": 228212,
      "byteLength": 17040,
      "byteStride": 40,
      "target": 34962
    },
    {
      "buffer": 0,
      "byteOffset": 245252,
      "byteLength": 23120,
      "byteStride": 40,
      "target": 34962
    },
    {
      "buffer": 0,
      "byteOffset": 268372,
      "byteLength": 12800,
      "byteStride": 40,
      "target": 34962
    },
    {
      "buffer": 0,
      "byteOffset": 281172,
      "byteLength": 3600,
      "byteStride": 40,
      "target": 34962
    },
    {
      "buffer": 0,
      "byteOffset": 284772,
      "byteLength": 27160,
      "byteStride": 40,
      "target": 34962
    },
    {
      "buffer": 0,
      "byteOffset": 311932,
      "byteLength": 28000,
      "byteStride": 40,
      "target": 34962
    },
    {
      "buffer": 0,
      "byteOffset": 339932,
      "byteLength": 38320,
      "byteStride": 40,
      "target": 34962
    },
    {
      "buffer": 0,
      "byteOffset": 378252,
      "byteLength": 13000,
      "byteStride": 40,
      "target": 34962
    },
    {
      "buffer": 0,
      "byteOffset": 391252,
      "byteLength": 15960,
      "byteStride": 40,
      "target": 34962
    }
  ],
  "buffers": [
    {
      "uri": "scene.bin",
      "byteLength": 407212
    }
  ],
  "materials": [
    {
      "name": "material0",
      "doubleSided": true,
      "pbrMetallicRoughness": {
        "baseColorFactor": [
          0.16862745098039217,
          0.12941176470588237,
          0.18823529411764706,
          1
        ],
        "metallicFactor": 0
      }
    },
    {
      "name": "material0_0",
      "doubleSided": true,
      "pbrMetallicRoughness": {
        "baseColorFactor": [
          0.16862745098039217,
          0.12941176470588237,
          0.18823529411764706,
          1
        ],
        "metallicFactor": 0
      }
    },
    {
      "name": "material0_1",
      "doubleSided": true,
      "pbrMetallicRoughness": {
        "baseColorFactor": [
          0.16862745098039217,
          0.12941176470588237,
          0.18823529411764706,
          1
        ],
        "metallicFactor": 0
      }
    },
    {
      "name": "material0_2",
      "doubleSided": true,
      "pbrMetallicRoughness": {
        "baseColorFactor": [
          0.16862745098039217,
          0.12941176470588237,
          0.18823529411764706,
          1
        ],
        "metallicFactor": 0
      }
    }
  ],
  "meshes": [
    {
      "name": "minotaur43_material0_0",
      "primitives": [
        {
          "attributes": {
            "COLOR_0": 2,
            "NORMAL": 1,
            "POSITION": 0
          },
          "mode": 4,
          "material": 0,
          "indices": 3
        }
      ]
    },
    {
      "name": "minotaur43_material0_0",
      "primitives": [
        {
          "attributes": {
            "COLOR_0": 22,
            "NORMAL": 21,
            "POSITION": 20
          },
          "mode": 4,
          "material": 0,
          "indices": 4
        }
      ]
    },
    {
      "name": "minotaur43_material0_0",
      "primitives": [
        {
          "attributes": {
            "COLOR_0": 25,
            "NORMAL": 24,
            "POSITION": 23
          },
          "mode": 4,
          "material": 0,
          "indices": 5
        }
      ]
    },
    {
      "name": "minotaur43_material0_0",
      "primitives": [
        {
          "attributes": {
            "COLOR_0": 28,
            "NORMAL": 27,
            "POSITION": 26
          },
          "mode": 4,
          "material": 0,
          "indices": 6
        }
      ]
    },
    {
      "name": "minotaur43_material0_0",
      "primitives": [
        {
          "attributes": {
            "COLOR_0": 31,
            "NORMAL": 30,
            "POSITION": 29
          },
          "mode": 4,
          "material": 0,
          "indices": 7
        }
      ]
    },
    {
      "name": "minotaur43_material0_0",
      "primitives": [
        {
          "attributes": {
            "COLOR_0": 34,
            "NORMAL": 33,
            "POSITION": 32
          },
          "mode": 4,
          "material": 0,
          "indices": 8
        }
      ]
    },
    {
      "name": "minotaur43_material0_0",
      "primitives": [
        {
          "attributes": {
            "COLOR_0": 37,
            "NORMAL": 36,
            "POSITION": 35
          },
          "mode": 4,
          "material": 0,
          "indices": 9
        }
      ]
    },
    {
      "name": "minotaur43_material0_0",
      "primitives": [
        {
          "attributes": {
            "COLOR_0": 40,
            "NORMAL": 39,
            "POSITION": 38
          },
          "mode": 4,
          "material": 0,
          "indices": 10
        }
      ]
    },
    {
      "name": "minotaur43_material0_0",
      "primitives": [
        {
          "attributes": {
            "COLOR_0": 43,
            "NORMAL": 42,
            "POSITION": 41
          },
          "mode": 4,
          "material": 0,
          "indices": 11
        }
      ]
    },
    {
      "name": "minotaur43_material0_0",
      "primitives": [
        {
          "attributes": {
            "COLOR_0": 46,
            "NORMAL": 45,
            "POSITION": 44
          },
          "mode": 4,
          "material": 0,
          "indices": 12
        }
      ]
    },
    {
      "name": "minotaur43_material0_0",
      "primitives": [
        {
          "attributes": {
            "COLOR_0": 49,
            "NORMAL": 48,
            "POSITION": 47
          },
          "mode": 4,
          "material": 0,
          "indices": 13
        }
      ]
    },
    {
      "name": "Olhos_material0_0",
      "primitives": [
        {
          "attributes": {
            "COLOR_0": 52,
            "NORMAL": 51,
            "POSITION": 50
          },
          "mode": 4,
          "material": 1,
          "indices": 14
        }
      ]
    },
    {
      "name": "Chifre_material0_0",
      "primitives": [
        {
          "attributes": {
            "COLOR_0": 55,
            "NORMAL": 54,
            "POSITION": 53
          },
          "mode": 4,
          "material": 2,
          "indices": 15
        }
      ]
    },
    {
      "name": "Chifre_material0_0",
      "primitives": [
        {
          "attributes": {
            "COLOR_0": 58,
            "NORMAL": 57,
            "POSITION": 56
          },
          "mode": 4,
          "material": 2,
          "indices": 16
        }
      ]
    },
    {
      "name": "Chifre_material0_0",
      "primitives": [
        {
          "attributes": {
            "COLOR_0": 61,
            "NORMAL": 60,
            "POSITION": 59
          },
          "mode": 4,
          "material": 2,
          "indices": 17
        }
      ]
    },
    {
      "name": "Chifre_material0_0",
      "primitives": [
        {
          "attributes": {
            "COLOR_0": 64,
            "NORMAL": 63,
            "POSITION": 62
          },
          "mode": 4,
          "material": 2,
          "indices": 18
        }
      ]
    },
    {
      "name": "Base_material0_0",
      "primitives": [
        {
          "attributes": {
            "COLOR_0": 67,
            "NORMAL": 66,
            "POSITION": 65
          },
          "mode": 4,
          "material": 3,
          "indices": 19
        }
      ]
    }
  ],
  "nodes": [
    {
      "name": "Sketchfab_model",
      "rotation": [
        -0.7071067811865475,
        0,
        0,
        0.7071067811865476
      ],
      "children": [
        1
      ]
    },
    {
      "name": "67661cb8ec594d979e7a7f37bb7e7f9c.fbx",
      "rotation": [
        0.7071067811865475,
        0,
        0,
        0.7071067811865476
      ],
      "children": [
        2
      ]
    },
    {
      "name": "RootNode",
      "children": [
        3,
        15,
        17,
        22
      ]
    },
    {
      "name": "minotaur43",
      "children": [
        4,
        5,
        6,
        7,
        8,
        9,
        10,
        11,
        12,
        13,
        14
      ]
    },
    {
      "name": "minotaur43_material0_0",
      "mesh": 0
    },
    {
      "name": "minotaur43_material0_0",
      "mesh": 1
    },
    {
      "name": "minotaur43_material0_0",
      "mesh": 2
    },
    {
      "name": "minotaur43_material0_0",
      "mesh": 3
    },
    {
      "name": "minotaur43_material0_0",
      "mesh": 4
    },
    {
      "name": "minotaur43_material0_0",
      "mesh": 5
    },
    {
      "name": "minotaur43_material0_0",
      "mesh": 6
    },
    {
      "name": "minotaur43_material0_0",
      "mesh": 7
    },
    {
      "name": "minotaur43_material0_0",
      "mesh": 8
    },
    {
      "name": "minotaur43_material0_0",
      "mesh": 9
    },
    {
      "name": "minotaur43_material0_0",
      "mesh": 10
    },
    {
      "name": "Olhos",
      "children": [
        16
      ]
    },
    {
      "name": "Olhos_material0_0",
      "mesh": 11
    },
    {
      "name": "Chifre",
      "children": [
        18,
        19,
        20,
        21
      ]
    },
    {
      "name": "Chifre_material0_0",
      "mesh": 12
    },
    {
      "name": "Chifre_material0_0",
      "mesh": 13
    },
    {
      "name": "Chifre_material0_0",
      "mesh": 14
    },
    {
      "name": "Chifre_material0_0",
      "mesh": 15
    },
    {
      "name": "Base",
      "children": [
        23
      ]
    },
    {
      "name": "Base_material0_0",
      "mesh": 16
    }
  ],
  "scenes": [
    {
      "name": "Sketchfab_Scene",
      "nodes": [
        0
      ]
    }
  ],
  "scene": 0
}