{
  "accessors": [
    {
      "bufferView": 2,
      "componentType": 5126,
      "count": 65532,
      "max": [
        100.83773803710938,
        62.899513244628906,
        68.36810302734375
      ],
      "min": [
        -95.36450958251953,
        -55.552520751953125,
        0.31380799412727356
      ],
      "type": "VEC3"
    },
    {
      "bufferView": 2,
      "byteOffset": 786384,
      "componentType": 5126,
      "count": 65532,
      "max": [
        0.99977046251297,
        0.9999922513961792,
        0.9999972581863403
      ],
      "min": [
        -0.9999596476554871,
        -0.9999953508377075,
        -0.9999997615814209
      ],
      "type": "VEC3"
    },
    {
      "bufferView": 1,
      "componentType": 5126,
      "count": 65532,
      "max": [
        0.9977279901504517,
        0.9936619997024536
      ],
      "min": [
        0.0022009999956935644,
        0.002248999895527959
      ],
      "type": "VEC2"
    },
    {
      "bufferView": 0,
      "componentType": 5125,
      "count": 316986,
      "type": "SCALAR"
    },
    {
      "bufferView": 2,
      "byteOffset": 1572768,
      "componentType": 5126,
      "count": 65532,
      "max": [
        100.48258972167969,
        62.88490676879883,
        68.37484741210938
      ],
      "min": [
        -99.22233581542969,
        -62.38232421875,
        0.0586250014603138
      ],
      "type": "VEC3"
    },
    {
      "bufferView": 2,
      "byteOffset": 2359152,
      "componentType": 5126,
      "count": 65532,
      "max": [
        0.9999813437461853,
        0.9999752640724182,
        0.9999998807907104
      ],
      "min": [
        -0.999987781047821,
        -0.9999764561653137,
        -0.9999985098838806
      ],
      "type": "VEC3"
    },
    {
      "bufferView": 1,
      "byteOffset": 524256,
      "componentType": 5126,
      "count": 65532,
      "max": [
        0.997439980506897,
        0.9977489709854126
      ],
      "min": [
        0.0022169998846948147,
        0.0028170000296086073
      ],
      "type": "VEC2"
    },
    {
      "bufferView": 0,
      "byteOffset": 1267944,
      "componentType": 5125,
      "count": 297492,
      "type": "SCALAR"
    },
    {
      "bufferView": 2,
      "byteOffset": 3145536,
      "componentType": 5126,
      "count": 36289,
      "max": [
        100.83773803710938,
        62.595733642578125,
        68.19639587402344
      ],
      "min": [
        -99.2159194946289,
        -62.38232421875,
        0.07018200308084488
      ],
      "type": "VEC3"
    },
    {
      "bufferView": 2,
      "byteOffset": 3581004,
      "componentType": 5126,
      "count": 36289,
      "max": [
        0.998946487903595,
        0.9999752640724182,
        0.9999986290931702
      ],
      "min": [
        -0.9998881220817566,
        -0.9998584985733032,
        -0.9999666213989258
      ],
      "type": "VEC3"
    },
    {
      "bufferView": 1,
      "byteOffset": 1048512,
      "componentType": 5126,
      "count": 36289,
      "max": [
        0.9976480007171631,
        0.9975360035896301
      ],
      "min": [
        0.0021619999315589666,
        0.0022350000217556953
      ],
      "type": "VEC2"
    },
    {
      "bufferView": 0,
      "byteOffset": 2457912,
      "componentType": 5125,
      "count": 135522,
      "type": "SCALAR"
    }
  ],
  "asset": {
    "extras": {
      "author": "The Hunt Museum (https://sketchfab.com/TheHuntMuseum)",
      "license": "CC-BY-4.0 (http://creativecommons.org/licenses/by/4.0/)",
      "source": "https://sketchfab.com/3d-models/droop-cup-4th-century-bc-4a31bd53c44b4c619bc466b97f55e398",
      "title": "Droop cup 4th century BC"
    },
    "generator": "Sketchfab-14.10.0",
    "version": "2.0"
  },
  "bufferViews": [
    {
      "buffer": 0,
      "byteLength": 3000000,
      "name": "floatBufferViews",
      "target": 34963
    },
    {
      "buffer": 0,
      "byteLength": 1338824,
      "byteOffset": 3000000,
      "byteStride": 8,
      "name": "floatBufferViews",
      "target": 34962
    },
    {
      "buffer": 0,
      "byteLength": 4016472,
      "byteOffset": 4338824,
      "byteStride": 12,
      "name": "floatBufferViews",
      "target": 34962
    }
  ],
  "buffers": [
    {
      "byteLength": 8355296,
      "uri": "scene.bin"
    }
  ],
  "images": [
    {
      "uri": "textures/material_0_baseColor.jpeg"
    }
  ],
  "materials": [
    {
      "doubleSided": true,
      "name": "material_0",
      "pbrMetallicRoughness": {
        "baseColorTexture": {
          "index": 0
        },
        "metallicFactor": 0.17523862929867975,
        "roughnessFactor": 0.2700930136168035
      }
    }
  ],
  "meshes": [
    {
      "name": "Object_0",
      "primitives": [
        {
          "attributes": {
            "NORMAL": 1,
            "POSITION": 0,
            "TEXCOORD_0": 2
          },
          "indices": 3,
          "material": 0,
          "mode": 4
        }
      ]
    },
    {
      "name": "Object_1",
      "primitives": [
        {
          "attributes": {
            "NORMAL": 5,
            "POSITION": 4,
            "TEXCOORD_0": 6
          },
          "indices": 7,
          "material": 0,
          "mode": 4
        }
      ]
    },
    {
      "name": "Object_2",
      "primitives": [
        {
          "attributes": {
            "NORMAL": 9,
            "POSITION": 8,
            "TEXCOORD_0": 10
          },
          "indices": 11,
          "material": 0,
          "mode": 4
        }
      ]
    }
  ],
  "nodes": [
    {
      "children": [
        1
      ],
      "matrix": [
        1.0,
        0.0,
        0.0,
        0.0,
        0.0,
        2.220446049250313e-16,
        -1.0,
        0.0,
        0.0,
        1.0,
        2.220446049250313e-16,
        0.0,
        0.0,
        0.0,
        0.0,
        1.0
      ],
      "name": "Sketchfab_model"
    },
    {
      "children": [
        2,
        3,
        4
      ],
      "name": "HCM_235_Droop_cup.obj.cleaner.materialmerger.gles"
    },
    {
      "mesh": 0,
      "name": "Object_2"
    },
    {
      "mesh": 1,
      "name": "Object_3"
    },
    {
      "mesh": 2,
      "name": "Object_4"
    }
  ],
  "samplers": [
    {
      "magFilter": 9729,
      "minFilter": 9987,
      "wrapS": 10497,
      "wrapT": 10497
    }
  ],
  "scene": 0,
  "scenes": [
    {
      "name": "Sketchfab_Scene",
      "nodes": [
        0
      ]
    }
  ],
  "textures": [
    {
      "sampler": 0,
      "source": 0
    }
  ]
}
