{
  "accessors": [
    {
      "bufferView": 2,
      "componentType": 5126,
      "count": 11293,
      "max": [
        0.43757200241088867,
        0.388029009103775,
        1.2015700340270996
      ],
      "min": [
        -0.38901999592781067,
        -0.48087701201438904,
        0.0207700002938509
      ],
      "type": "VEC3"
    },
    {
      "bufferView": 2,
      "byteOffset": 135516,
      "componentType": 5126,
      "count": 11293,
      "max": [
        0.9999336004257202,
        0.9948658347129822,
        0.9999442100524902
      ],
      "min": [
        -0.9999436140060425,
        -0.9998579025268555,
        -0.9997934699058533
      ],
      "type": "VEC3"
    },
    {
      "bufferView": 1,
      "componentType": 5126,
      "count": 11293,
      "max": [
        0.9983400106430054,
        0.9997230172157288
      ],
      "min": [
        0.0003220000071451068,
        0.0051310001872479916
      ],
      "type": "VEC2"
    },
    {
      "bufferView": 0,
      "componentType": 5125,
      "count": 37578,
      "type": "SCALAR"
    }
  ],
  "asset": {
    "extras": {
      "author": "Kirk Hiatt (https://sketchfab.com/kirkhiatt)",
      "license": "CC-BY-4.0 (http://creativecommons.org/licenses/by/4.0/)",
      "source": "https://sketchfab.com/3d-models/head-of-a-bull-7902d24b5d8a4708a62ab969d5f58e11",
      "title": "Head of a Bull"
    },
    "generator": "Sketchfab-12.68.0",
    "version": "2.0"
  },
  "bufferViews": [
    {
      "buffer": 0,
      "byteLength": 150312,
      "name": "floatBufferViews",
      "target": 34963
    },
    {
      "buffer": 0,
      "byteLength": 90344,
      "byteOffset": 150312,
      "byteStride": 8,
      "name": "floatBufferViews",
      "target": 34962
    },
    {
      "buffer": 0,
      "byteLength": 271032,
      "byteOffset": 240656,
      "byteStride": 12,
      "name": "floatBufferViews",
      "target": 34962
    }
  ],
  "buffers": [
    {
      "byteLength": 511688,
      "uri": "scene.bin"
    }
  ],
  "extensionsUsed": [
    "KHR_materials_unlit"
  ],
  "images": [
    {
      "uri": "textures/Bull_Head_8k_Super_Low_Poly_baseColor.jpeg"
    }
  ],
  "materials": [
    {
      "doubleSided": true,
      "extensions": {
        "KHR_materials_unlit": {}
      },
      "name": "Bull_Head_8k_Super_Low_Poly",
      "pbrMetallicRoughness": {
        "baseColorTexture": {
          "index": 0
        },
        "metallicFactor": 0.0
      }
    }
  ],
  "meshes": [
    {
      "name": "Object_0",
      "primitives": [
        {
          "attributes": {
            "NORMAL": 1,
            "POSITION": 0,
            "TEXCOORD_0": 2
          },
          "indices": 3,
          "material": 0,
          "mode": 4
        }
      ]
    }
  ],
  "nodes": [
    {
      "children": [
        1
      ],
      "matrix": [
        0.6163240185956838,
        1.1995301861851775e-16,
        -0.5402203699523227,
        0.0,
        -0.5402203699523227,
        1.3685142321488625e-16,
        -0.6163240185956838,
        0.0,
        0.0,
        0.8195689916610718,
        1.8198087296218896e-16,
        0.0,
        -0.024580251425504684,
        -6.109515058876341e-18,
        0.027514809742569923,
        1.0
      ],
      "name": "Sketchfab_model"
    },
    {
      "children": [
        2
      ],
      "name": "DC_Head_of_Bull_Gaetano_Monti_1824.obj.cleaner.materialmerger.gles"
    },
    {
      "mesh": 0,
      "name": "Object_2"
    }
  ],
  "samplers": [
    {
      "magFilter": 9729,
      "minFilter": 9987,
      "wrapS": 10497,
      "wrapT": 10497
    }
  ],
  "scene": 0,
  "scenes": [
    {
      "name": "Sketchfab_Scene",
      "nodes": [
        0
      ]
    }
  ],
  "textures": [
    {
      "sampler": 0,
      "source": 0
    }
  ]
}
