{
  "accessors": [
    {
      "bufferView": 2,
      "componentType": 5126,
      "count": 65532,
      "max": [
        0.3448486328125,
        0.334259033203125,
        0.4893798828125
      ],
      "min": [
        -0.348968505859375,
        -0.328582763671875,
        -0.499481201171875
      ],
      "type": "VEC3"
    },
    {
      "bufferView": 2,
      "byteOffset": 786384,
      "componentType": 5126,
      "count": 65532,
      "max": [
        1.0,
        0.9999694228172302,
        0.9998762607574463
      ],
      "min": [
        -1.0,
        -0.9999691247940063,
        -0.9999381899833679
      ],
      "type": "VEC3"
    },
    {
      "bufferView": 3,
      "componentType": 5126,
      "count": 65532,
      "max": [
        0.9999684691429138,
        0.9998540878295898,
        0.9999814629554749,
        1.0
      ],
      "min": [
        -0.9999688863754272,
        -0.9999996423721313,
        -0.9999331831932068,
        -1.0
      ],
      "type": "VEC4"
    },
    {
      "bufferView": 1,
      "componentType": 5126,
      "count": 65532,
      "max": [
        0.999755859375,
        0.999755859375
      ],
      "min": [
        0.0,
        0.0
      ],
      "type": "VEC2"
    },
    {
      "bufferView": 1,
      "byteOffset": 524256,
      "componentType": 5126,
      "count": 65532,
      "max": [
        0.999755859375,
        0.999755859375
      ],
      "min": [
        0.0,
        0.0
      ],
      "type": "VEC2"
    },
    {
      "bufferView": 1,
      "byteOffset": 1048512,
      "componentType": 5126,
      "count": 65532,
      "max": [
        0.999755859375,
        0.999755859375
      ],
      "min": [
        0.0,
        0.0
      ],
      "type": "VEC2"
    },
    {
      "bufferView": 0,
      "componentType": 5125,
      "count": 321975,
      "type": "SCALAR"
    },
    {
      "bufferView": 2,
      "byteOffset": 1572768,
      "componentType": 5126,
      "count": 65532,
      "max": [
        0.369537353515625,
        0.329345703125,
        0.329071044921875
      ],
      "min": [
        -0.015582084655761719,
        0.09900665283203125,
        -0.499481201171875
      ],
      "type": "VEC3"
    },
    {
      "bufferView": 2,
      "byteOffset": 2359152,
      "componentType": 5126,
      "count": 65532,
      "max": [
        0.9999383091926575,
        1.0,
        1.0
      ],
      "min": [
        -0.9999695420265198,
        -0.9999384880065918,
        -0.9999692440032959
      ],
      "type": "VEC3"
    },
    {
      "bufferView": 3,
      "byteOffset": 1048512,
      "componentType": 5126,
      "count": 65532,
      "max": [
        0.9999560117721558,
        0.9998295903205872,
        0.9999814629554749,
        1.0
      ],
      "min": [
        -0.9999679923057556,
        -0.9999693036079407,
        -0.9999653100967407,
        -1.0
      ],
      "type": "VEC4"
    },
    {
      "bufferView": 1,
      "byteOffset": 1572768,
      "componentType": 5126,
      "count": 65532,
      "max": [
        1.0,
        1.0
      ],
      "min": [
        0.0,
        0.0
      ],
      "type": "VEC2"
    },
    {
      "bufferView": 1,
      "byteOffset": 2097024,
      "componentType": 5126,
      "count": 65532,
      "max": [
        1.0,
        1.0
      ],
      "min": [
        0.0,
        0.0
      ],
      "type": "VEC2"
    },
    {
      "bufferView": 1,
      "byteOffset": 2621280,
      "componentType": 5126,
      "count": 65532,
      "max": [
        1.0,
        1.0
      ],
      "min": [
        0.0,
        0.0
      ],
      "type": "VEC2"
    },
    {
      "bufferView": 0,
      "byteOffset": 1287900,
      "componentType": 5125,
      "count": 295923,
      "type": "SCALAR"
    },
    {
      "bufferView": 2,
      "byteOffset": 3145536,
      "componentType": 5126,
      "count": 65532,
      "max": [
        0.2598876953125,
        0.196533203125,
        0.465728759765625
      ],
      "min": [
        3.9346516132354736e-05,
        0.025732040405273438,
        -0.499420166015625
      ],
      "type": "VEC3"
    },
    {
      "bufferView": 2,
      "byteOffset": 3931920,
      "componentType": 5126,
      "count": 65532,
      "max": [
        0.9999692440032959,
        0.9999690651893616,
        0.9997531175613403
      ],
      "min": [
        -0.9999691247940063,
        -0.9999691247940063,
        -0.9995967745780945
      ],
      "type": "VEC3"
    },
    {
      "bufferView": 3,
      "byteOffset": 2097024,
      "componentType": 5126,
      "count": 65532,
      "max": [
        1.0,
        0.9999105334281921,
        0.9999791383743286,
        1.0
      ],
      "min": [
        -0.9999629855155945,
        -0.9999973773956299,
        -0.999968945980072,
        -1.0
      ],
      "type": "VEC4"
    },
    {
      "bufferView": 1,
      "byteOffset": 3145536,
      "componentType": 5126,
      "count": 65532,
      "max": [
        0.999755859375,
        1.0
      ],
      "min": [
        0.0,
        0.0009765625
      ],
      "type": "VEC2"
    },
    {
      "bufferView": 1,
      "byteOffset": 3669792,
      "componentType": 5126,
      "count": 65532,
      "max": [
        0.999755859375,
        1.0
      ],
      "min": [
        0.0,
        0.0009765625
      ],
      "type": "VEC2"
    },
    {
      "bufferView": 1,
      "byteOffset": 4194048,
      "componentType": 5126,
      "count": 65532,
      "max": [
        0.999755859375,
        1.0
      ],
      "min": [
        0.0,
        0.0009765625
      ],
      "type": "VEC2"
    },
    {
      "bufferView": 0,
      "byteOffset": 2471592,
      "componentType": 5125,
      "count": 306525,
      "type": "SCALAR"
    },
    {
      "bufferView": 2,
      "byteOffset": 4718304,
      "componentType": 5126,
      "count": 65532,
      "max": [
        0.3553466796875,
        0.1485443115234375,
        0.4771728515625
      ],
      "min": [
        -0.326446533203125,
        -0.012150764465332031,
        -0.368865966796875
      ],
      "type": "VEC3"
    },
    {
      "bufferView": 2,
      "byteOffset": 5504688,
      "componentType": 5126,
      "count": 65532,
      "max": [
        0.9999694228172302,
        1.0,
        0.9999319314956665
      ],
      "min": [
        -1.0,
        -0.9999691843986511,
        -0.9998452663421631
      ],
      "type": "VEC3"
    },
    {
      "bufferView": 3,
      "byteOffset": 3145536,
      "componentType": 5126,
      "count": 65532,
      "max": [
        0.9999997615814209,
        0.9999927282333374,
        1.0,
        1.0
      ],
      "min": [
        -0.9999656081199646,
        -0.9999984502792358,
        -1.0,
        -1.0
      ],
      "type": "VEC4"
    },
    {
      "bufferView": 1,
      "byteOffset": 4718304,
      "componentType": 5126,
      "count": 65532,
      "max": [
        0.99951171875,
        1.0
      ],
      "min": [
        0.000244140625,
        0.000244140625
      ],
      "type": "VEC2"
    },
    {
      "bufferView": 1,
      "byteOffset": 5242560,
      "componentType": 5126,
      "count": 65532,
      "max": [
        0.99951171875,
        1.0
      ],
      "min": [
        0.000244140625,
        0.000244140625
      ],
      "type": "VEC2"
    },
    {
      "bufferView": 1,
      "byteOffset": 5766816,
      "componentType": 5126,
      "count": 65532,
      "max": [
        0.99951171875,
        1.0
      ],
      "min": [
        0.000244140625,
        0.000244140625
      ],
      "type": "VEC2"
    },
    {
      "bufferView": 0,
      "byteOffset": 3697692,
      "componentType": 5125,
      "count": 298902,
      "type": "SCALAR"
    },
    {
      "bufferView": 2,
      "byteOffset": 6291072,
      "componentType": 5126,
      "count": 65532,
      "max": [
        0.353118896484375,
        0.09111785888671875,
        0.4981689453125
      ],
      "min": [
        -0.365325927734375,
        -0.1386260986328125,
        -0.483642578125
      ],
      "type": "VEC3"
    },
    {
      "bufferView": 2,
      "byteOffset": 7077456,
      "componentType": 5126,
      "count": 65532,
      "max": [
        0.9999691843986511,
        1.0,
        0.9998459219932556
      ],
      "min": [
        -0.9999383687973022,
        -0.9999690055847168,
        -0.9999383091926575
      ],
      "type": "VEC3"
    },
    {
      "bufferView": 3,
      "byteOffset": 4194048,
      "componentType": 5126,
      "count": 65532,
      "max": [
        0.9999609589576721,
        0.9999927282333374,
        0.9999479651451111,
        1.0
      ],
      "min": [
        -1.0,
        -0.9998947978019714,
        -0.9999443888664246,
        -1.0
      ],
      "type": "VEC4"
    },
    {
      "bufferView": 1,
      "byteOffset": 6291072,
      "componentType": 5126,
      "count": 65532,
      "max": [
        0.999755859375,
        1.0
      ],
      "min": [
        0.0,
        0.0
      ],
      "type": "VEC2"
    },
    {
      "bufferView": 1,
      "byteOffset": 6815328,
      "componentType": 5126,
      "count": 65532,
      "max": [
        0.999755859375,
        1.0
      ],
      "min": [
        0.0,
        0.0
      ],
      "type": "VEC2"
    },
    {
      "bufferView": 1,
      "byteOffset": 7339584,
      "componentType": 5126,
      "count": 65532,
      "max": [
        0.999755859375,
        1.0
      ],
      "min": [
        0.0,
        0.0
      ],
      "type": "VEC2"
    },
    {
      "bufferView": 0,
      "byteOffset": 4893300,
      "componentType": 5125,
      "count": 306102,
      "type": "SCALAR"
    },
    {
      "bufferView": 2,
      "byteOffset": 7863840,
      "componentType": 5126,
      "count": 65532,
      "max": [
        0.2510986328125,
        -0.03106689453125,
        0.4140625
      ],
      "min": [
        -0.009383201599121094,
        -0.2293853759765625,
        -0.499420166015625
      ],
      "type": "VEC3"
    },
    {
      "bufferView": 2,
      "byteOffset": 8650224,
      "componentType": 5126,
      "count": 65532,
      "max": [
        0.9999692440032959,
        0.9995972514152527,
        0.999968945980072
      ],
      "min": [
        -0.9998762607574463,
        -0.9999690055847168,
        -0.9998763203620911
      ],
      "type": "VEC3"
    },
    {
      "bufferView": 3,
      "byteOffset": 5242560,
      "componentType": 5126,
      "count": 65532,
      "max": [
        0.9999819397926331,
        0.999966561794281,
        0.999968945980072,
        1.0
      ],
      "min": [
        -0.9999336004257202,
        -0.9998862743377686,
        -1.0,
        -1.0
      ],
      "type": "VEC4"
    },
    {
      "bufferView": 1,
      "byteOffset": 7863840,
      "componentType": 5126,
      "count": 65532,
      "max": [
        0.999755859375,
        1.0
      ],
      "min": [
        0.0,
        0.000244140625
      ],
      "type": "VEC2"
    },
    {
      "bufferView": 1,
      "byteOffset": 8388096,
      "componentType": 5126,
      "count": 65532,
      "max": [
        0.999755859375,
        1.0
      ],
      "min": [
        0.0,
        0.000244140625
      ],
      "type": "VEC2"
    },
    {
      "bufferView": 1,
      "byteOffset": 8912352,
      "componentType": 5126,
      "count": 65532,
      "max": [
        0.999755859375,
        1.0
      ],
      "min": [
        0.0,
        0.000244140625
      ],
      "type": "VEC2"
    },
    {
      "bufferView": 0,
      "byteOffset": 6117708,
      "componentType": 5125,
      "count": 316014,
      "type": "SCALAR"
    },
    {
      "bufferView": 2,
      "byteOffset": 9436608,
      "componentType": 5126,
      "count": 65532,
      "max": [
        0.36932373046875,
        -0.092620849609375,
        0.3291015625
      ],
      "min": [
        -0.013616561889648438,
        -0.334381103515625,
        -0.498382568359375
      ],
      "type": "VEC3"
    },
    {
      "bufferView": 2,
      "byteOffset": 10222992,
      "componentType": 5126,
      "count": 65532,
      "max": [
        0.9999381899833679,
        0.9999691843986511,
        1.0
      ],
      "min": [
        -0.9998761415481567,
        -1.0,
        -0.9998764395713806
      ],
      "type": "VEC3"
    },
    {
      "bufferView": 3,
      "byteOffset": 6291072,
      "componentType": 5126,
      "count": 65532,
      "max": [
        0.9999690651893616,
        0.9999696016311646,
        0.9998857975006104,
        1.0
      ],
      "min": [
        -0.9999769926071167,
        -0.9999687075614929,
        -0.9999915361404419,
        -1.0
      ],
      "type": "VEC4"
    },
    {
      "bufferView": 1,
      "byteOffset": 9436608,
      "componentType": 5126,
      "count": 65532,
      "max": [
        0.999755859375,
        0.99951171875
      ],
      "min": [
        0.000244140625,
        0.0
      ],
      "type": "VEC2"
    },
    {
      "bufferView": 1,
      "byteOffset": 9960864,
      "componentType": 5126,
      "count": 65532,
      "max": [
        0.999755859375,
        0.99951171875
      ],
      "min": [
        0.000244140625,
        0.0
      ],
      "type": "VEC2"
    },
    {
      "bufferView": 1,
      "byteOffset": 10485120,
      "componentType": 5126,
      "count": 65532,
      "max": [
        0.999755859375,
        0.99951171875
      ],
      "min": [
        0.000244140625,
        0.0
      ],
      "type": "VEC2"
    },
    {
      "bufferView": 0,
      "byteOffset": 7381764,
      "componentType": 5125,
      "count": 304845,
      "type": "SCALAR"
    },
    {
      "bufferView": 2,
      "byteOffset": 11009376,
      "componentType": 5126,
      "count": 65532,
      "max": [
        0.36932373046875,
        0.0003896355628967285,
        0.4866943359375
      ],
      "min": [
        -0.015504837036132813,
        -0.230224609375,
        -0.4993896484375
      ],
      "type": "VEC3"
    },
    {
      "bufferView": 2,
      "byteOffset": 11795760,
      "componentType": 5126,
      "count": 65532,
      "max": [
        1.0,
        1.0,
        0.999968945980072
      ],
      "min": [
        -0.9999383687973022,
        -0.9999691843986511,
        -0.99993896484375
      ],
      "type": "VEC3"
    },
    {
      "bufferView": 3,
      "byteOffset": 7339584,
      "componentType": 5126,
      "count": 65532,
      "max": [
        0.9998321533203125,
        0.9999995827674866,
        0.9999644756317139,
        1.0
      ],
      "min": [
        -0.9999826550483704,
        -0.9998953342437744,
        -0.9999695420265198,
        -1.0
      ],
      "type": "VEC4"
    },
    {
      "bufferView": 1,
      "byteOffset": 11009376,
      "componentType": 5126,
      "count": 65532,
      "max": [
        0.999755859375,
        1.0
      ],
      "min": [
        0.000244140625,
        0.000244140625
      ],
      "type": "VEC2"
    },
    {
      "bufferView": 1,
      "byteOffset": 11533632,
      "componentType": 5126,
      "count": 65532,
      "max": [
        0.999755859375,
        1.0
      ],
      "min": [
        0.000244140625,
        0.000244140625
      ],
      "type": "VEC2"
    },
    {
      "bufferView": 1,
      "byteOffset": 12057888,
      "componentType": 5126,
      "count": 65532,
      "max": [
        0.999755859375,
        1.0
      ],
      "min": [
        0.000244140625,
        0.000244140625
      ],
      "type": "VEC2"
    },
    {
      "bufferView": 0,
      "byteOffset": 8601144,
      "componentType": 5125,
      "count": 301215,
      "type": "SCALAR"
    },
    {
      "bufferView": 2,
      "byteOffset": 12582144,
      "componentType": 5126,
      "count": 65533,
      "max": [
        0.35504150390625,
        0.047031402587890625,
        0.4976806640625
      ],
      "min": [
        -0.36553955078125,
        -0.0728912353515625,
        -0.321990966796875
      ],
      "type": "VEC3"
    },
    {
      "bufferView": 2,
      "byteOffset": 13368540,
      "componentType": 5126,
      "count": 65533,
      "max": [
        1.0,
        0.9999383091926575,
        0.9998764395713806
      ],
      "min": [
        -0.9999690651893616,
        -1.0,
        -0.9999693036079407
      ],
      "type": "VEC3"
    },
    {
      "bufferView": 3,
      "byteOffset": 8388096,
      "componentType": 5126,
      "count": 65533,
      "max": [
        0.9999691247940063,
        0.9999650716781616,
        0.9999409914016724,
        1.0
      ],
      "min": [
        -0.9999019503593445,
        -0.9999303817749023,
        -0.9999964833259583,
        -1.0
      ],
      "type": "VEC4"
    },
    {
      "bufferView": 1,
      "byteOffset": 12582144,
      "componentType": 5126,
      "count": 65533,
      "max": [
        1.0,
        1.0
      ],
      "min": [
        0.000244140625,
        0.000244140625
      ],
      "type": "VEC2"
    },
    {
      "bufferView": 1,
      "byteOffset": 13106408,
      "componentType": 5126,
      "count": 65533,
      "max": [
        1.0,
        1.0
      ],
      "min": [
        0.000244140625,
        0.000244140625
      ],
      "type": "VEC2"
    },
    {
      "bufferView": 1,
      "byteOffset": 13630672,
      "componentType": 5126,
      "count": 65533,
      "max": [
        1.0,
        1.0
      ],
      "min": [
        0.000244140625,
        0.000244140625
      ],
      "type": "VEC2"
    },
    {
      "bufferView": 0,
      "byteOffset": 9806004,
      "componentType": 5125,
      "count": 304041,
      "type": "SCALAR"
    },
    {
      "bufferView": 2,
      "byteOffset": 14154936,
      "componentType": 5126,
      "count": 13122,
      "max": [
        0.329132080078125,
        0.11295318603515625,
        0.490753173828125
      ],
      "min": [
        -0.365447998046875,
        -0.011889457702636719,
        -0.323516845703125
      ],
      "type": "VEC3"
    },
    {
      "bufferView": 2,
      "byteOffset": 14312400,
      "componentType": 5126,
      "count": 13122,
      "max": [
        0.9999691247940063,
        0.9999380111694336,
        0.999753475189209
      ],
      "min": [
        -0.9997523427009583,
        -0.9990099668502808,
        -0.9999383091926575
      ],
      "type": "VEC3"
    },
    {
      "bufferView": 3,
      "byteOffset": 9436624,
      "componentType": 5126,
      "count": 13122,
      "max": [
        0.9990814328193665,
        0.9999932646751404,
        0.9999479055404663,
        1.0
      ],
      "min": [
        -0.9999695420265198,
        -0.9999598264694214,
        -0.9999443888664246,
        -1.0
      ],
      "type": "VEC4"
    },
    {
      "bufferView": 1,
      "byteOffset": 14154936,
      "componentType": 5126,
      "count": 13122,
      "max": [
        0.9990234375,
        1.0
      ],
      "min": [
        0.000244140625,
        0.0
      ],
      "type": "VEC2"
    },
    {
      "bufferView": 1,
      "byteOffset": 14259912,
      "componentType": 5126,
      "count": 13122,
      "max": [
        0.9990234375,
        1.0
      ],
      "min": [
        0.000244140625,
        0.0
      ],
      "type": "VEC2"
    },
    {
      "bufferView": 1,
      "byteOffset": 14364888,
      "componentType": 5126,
      "count": 13122,
      "max": [
        0.9990234375,
        1.0
      ],
      "min": [
        0.000244140625,
        0.0
      ],
      "type": "VEC2"
    },
    {
      "bufferView": 0,
      "byteOffset": 11022168,
      "componentType": 5125,
      "count": 47670,
      "type": "SCALAR"
    }
  ],
  "asset": {
    "extras": {
      "author": "Pigcraft (https://sketchfab.com/s8819296)",
      "license": "CC-BY-4.0 (http://creativecommons.org/licenses/by/4.0/)",
      "source": "https://sketchfab.com/3d-models/pale-dread-white-werewolf-d08dacfecf25462fa246ac5388e84a11",
      "title": "Pale Dread White Werewolf"
    },
    "generator": "Sketchfab-16.95.0",
    "version": "2.0"
  },
  "bufferViews": [
    {
      "buffer": 0,
      "byteLength": 11212848,
      "name": "floatBufferViews",
      "target": 34963
    },
    {
      "buffer": 0,
      "byteLength": 14469864,
      "byteOffset": 11212848,
      "byteStride": 8,
      "name": "floatBufferViews",
      "target": 34962
    },
    {
      "buffer": 0,
      "byteLength": 14469864,
      "byteOffset": 25682712,
      "byteStride": 12,
      "name": "floatBufferViews",
      "target": 34962
    },
    {
      "buffer": 0,
      "byteLength": 9646576,
      "byteOffset": 40152576,
      "byteStride": 16,
      "name": "floatBufferViews",
      "target": 34962
    }
  ],
  "buffers": [
    {
      "byteLength": 49799152,
      "uri": "scene.bin"
    }
  ],
  "images": [
    {
      "uri": "textures/tripo_mat_7db9df27_baseColor.jpeg"
    },
    {
      "uri": "textures/tripo_mat_7db9df27_metallicRoughness.png"
    },
    {
      "uri": "textures/tripo_mat_7db9df27_normal.png"
    }
  ],
  "materials": [
    {
      "doubleSided": true,
      "name": "tripo_mat_7db9df27",
      "normalTexture": {
        "index": 2,
        "texCoord": 1
      },
      "pbrMetallicRoughness": {
        "baseColorTexture": {
          "index": 0
        },
        "metallicRoughnessTexture": {
          "index": 1
        }
      }
    }
  ],
  "meshes": [
    {
      "name": "tripo_node_7db9df27_tripo_mat_7db9df27_0",
      "primitives": [
        {
          "attributes": {
            "NORMAL": 1,
            "POSITION": 0,
            "TANGENT": 2,
            "TEXCOORD_0": 3,
            "TEXCOORD_1": 4,
            "TEXCOORD_2": 5
          },
          "indices": 6,
          "material": 0,
          "mode": 4
        }
      ]
    },
    {
      "name": "tripo_node_7db9df27_tripo_mat_7db9df27_0",
      "primitives": [
        {
          "attributes": {
            "NORMAL": 8,
            "POSITION": 7,
            "TANGENT": 9,
            "TEXCOORD_0": 10,
            "TEXCOORD_1": 11,
            "TEXCOORD_2": 12
          },
          "indices": 13,
          "material": 0,
          "mode": 4
        }
      ]
    },
    {
      "name": "tripo_node_7db9df27_tripo_mat_7db9df27_0",
      "primitives": [
        {
          "attributes": {
            "NORMAL": 15,
            "POSITION": 14,
            "TANGENT": 16,
            "TEXCOORD_0": 17,
            "TEXCOORD_1": 18,
            "TEXCOORD_2": 19
          },
          "indices": 20,
          "material": 0,
          "mode": 4
        }
      ]
    },
    {
      "name": "tripo_node_7db9df27_tripo_mat_7db9df27_0",
      "primitives": [
        {
          "attributes": {
            "NORMAL": 22,
            "POSITION": 21,
            "TANGENT": 23,
            "TEXCOORD_0": 24,
            "TEXCOORD_1": 25,
            "TEXCOORD_2": 26
          },
          "indices": 27,
          "material": 0,
          "mode": 4
        }
      ]
    },
    {
      "name": "tripo_node_7db9df27_tripo_mat_7db9df27_0",
      "primitives": [
        {
          "attributes": {
            "NORMAL": 29,
            "POSITION": 28,
            "TANGENT": 30,
            "TEXCOORD_0": 31,
            "TEXCOORD_1": 32,
            "TEXCOORD_2": 33
          },
          "indices": 34,
          "material": 0,
          "mode": 4
        }
      ]
    },
    {
      "name": "tripo_node_7db9df27_tripo_mat_7db9df27_0",
      "primitives": [
        {
          "attributes": {
            "NORMAL": 36,
            "POSITION": 35,
            "TANGENT": 37,
            "TEXCOORD_0": 38,
            "TEXCOORD_1": 39,
            "TEXCOORD_2": 40
          },
          "indices": 41,
          "material": 0,
          "mode": 4
        }
      ]
    },
    {
      "name": "tripo_node_7db9df27_tripo_mat_7db9df27_0",
      "primitives": [
        {
          "attributes": {
            "NORMAL": 43,
            "POSITION": 42,
            "TANGENT": 44,
            "TEXCOORD_0": 45,
            "TEXCOORD_1": 46,
            "TEXCOORD_2": 47
          },
          "indices": 48,
          "material": 0,
          "mode": 4
        }
      ]
    },
    {
      "name": "tripo_node_7db9df27_tripo_mat_7db9df27_0",
      "primitives": [
        {
          "attributes": {
            "NORMAL": 50,
            "POSITION": 49,
            "TANGENT": 51,
            "TEXCOORD_0": 52,
            "TEXCOORD_1": 53,
            "TEXCOORD_2": 54
          },
          "indices": 55,
          "material": 0,
          "mode": 4
        }
      ]
    },
    {
      "name": "tripo_node_7db9df27_tripo_mat_7db9df27_0",
      "primitives": [
        {
          "attributes": {
            "NORMAL": 57,
            "POSITION": 56,
            "TANGENT": 58,
            "TEXCOORD_0": 59,
            "TEXCOORD_1": 60,
            "TEXCOORD_2": 61
          },
          "indices": 62,
          "material": 0,
          "mode": 4
        }
      ]
    },
    {
      "name": "tripo_node_7db9df27_tripo_mat_7db9df27_0",
      "primitives": [
        {
          "attributes": {
            "NORMAL": 64,
            "POSITION": 63,
            "TANGENT": 65,
            "TEXCOORD_0": 66,
            "TEXCOORD_1": 67,
            "TEXCOORD_2": 68
          },
          "indices": 69,
          "material": 0,
          "mode": 4
        }
      ]
    }
  ],
  "nodes": [
    {
      "children": [
        1
      ],
      "matrix": [
        1.0,
        0.0,
        0.0,
        0.0,
        0.0,
        2.220446049250313e-16,
        -1.0,
        0.0,
        0.0,
        1.0,
        2.220446049250313e-16,
        0.0,
        0.0,
        0.0,
        0.0,
        1.0
      ],
      "name": "Sketchfab_model"
    },
    {
      "children": [
        2
      ],
      "matrix": [
        1.0,
        0.0,
        0.0,
        0.0,
        0.0,
        0.0,
        1.0,
        0.0,
        0.0,
        -1.0,
        0.0,
        0.0,
        0.0,
        0.0,
        0.0,
        1.0
      ],
      "name": "77abffc660af4357bb014e5338c946e4.fbx"
    },
    {
      "children": [
        3
      ],
      "name": "RootNode"
    },
    {
      "children": [
        4,
        5,
        6,
        7,
        8,
        9,
        10,
        11,
        12,
        13
      ],
      "matrix": [
        1.0,
        0.0,
        0.0,
        0.0,
        0.0,
        -4.371139006309477e-08,
        -0.999999999999999,
        0.0,
        0.0,
        0.999999999999999,
        -4.371139006309477e-08,
        0.0,
        0.0,
        0.0,
        0.0,
        1.0
      ],
      "name": "tripo_node_7db9df27"
    },
    {
      "mesh": 0,
      "name": "tripo_node_7db9df27_tripo_mat_7db9df27_0"
    },
    {
      "mesh": 1,
      "name": "tripo_node_7db9df27_tripo_mat_7db9df27_0"
    },
    {
      "mesh": 2,
      "name": "tripo_node_7db9df27_tripo_mat_7db9df27_0"
    },
    {
      "mesh": 3,
      "name": "tripo_node_7db9df27_tripo_mat_7db9df27_0"
    },
    {
      "mesh": 4,
      "name": "tripo_node_7db9df27_tripo_mat_7db9df27_0"
    },
    {
      "mesh": 5,
      "name": "tripo_node_7db9df27_tripo_mat_7db9df27_0"
    },
    {
      "mesh": 6,
      "name": "tripo_node_7db9df27_tripo_mat_7db9df27_0"
    },
    {
      "mesh": 7,
      "name": "tripo_node_7db9df27_tripo_mat_7db9df27_0"
    },
    {
      "mesh": 8,
      "name": "tripo_node_7db9df27_tripo_mat_7db9df27_0"
    },
    {
      "mesh": 9,
      "name": "tripo_node_7db9df27_tripo_mat_7db9df27_0"
    }
  ],
  "samplers": [
    {
      "magFilter": 9729,
      "minFilter": 9987,
      "wrapS": 10497,
      "wrapT": 10497
    }
  ],
  "scene": 0,
  "scenes": [
    {
      "name": "Sketchfab_Scene",
      "nodes": [
        0
      ]
    }
  ],
  "textures": [
    {
      "sampler": 0,
      "source": 0
    },
    {
      "sampler": 0,
      "source": 1
    },
    {
      "sampler": 0,
      "source": 2
    }
  ]
}
