{
  "asset": {
    "extras": {
      "author": "Spinnee (https://sketchfab.com/Spinnee)",
      "license": "CC-BY-4.0 (http://creativecommons.org/licenses/by/4.0/)",
      "source": "https://sketchfab.com/3d-models/awil-werewolf-9cdcdaa801a94acdb09ddcebb8bd3719",
      "title": "AWIL Werewolf"
    },
    "generator": "Sketchfab-12.68.0",
    "version": "2.0"
  },
  "accessors": [
    {
      "componentType": 5126,
      "count": 7301,
      "max": [
        0.03919951245188713,
        0.011612135916948318,
        0.01740543358027935
      ],
      "min": [
        -0.042689185589551926,
        -0.05176291987299919,
        -0.09076998382806778
      ],
      "type": "VEC3",
      "bufferView": 0,
      "byteOffset": 0
    },
    {
      "componentType": 5126,
      "count": 7301,
      "type": "VEC3",
      "bufferView": 1,
      "byteOffset": 0
    },
    {
      "componentType": 5126,
      "count": 7301,
      "type": "VEC4",
      "bufferView": 2,
      "byteOffset": 0
    },
    {
      "componentType": 5126,
      "count": 7301,
      "type": "VEC2",
      "bufferView": 3,
      "byteOffset": 0
    },
    {
      "componentType": 5125,
      "count": 23520,
      "type": "SCALAR",
      "bufferView": 4,
      "byteOffset": 0
    }
  ],
  "bufferViews": [
    {
      "buffer": 0,
      "byteLength": 87612,
      "byteOffset": 0
    },
    {
      "buffer": 0,
      "byteLength": 87612,
      "byteOffset": 87612
    },
    {
      "buffer": 0,
      "byteLength": 116816,
      "byteOffset": 175224
    },
    {
      "buffer": 0,
      "byteLength": 58408,
      "byteOffset": 292040
    },
    {
      "buffer": 0,
      "byteLength": 94080,
      "byteOffset": 350448
    }
  ],
  "buffers": [
    {
      "byteLength": 444528,
      "uri": "scene.bin"
    }
  ],
  "images": [
    {
      "uri": "textures/lambert5_baseColor.png"
    },
    {
      "uri": "textures/lambert5_orm.png"
    },
    {
      "uri": "textures/lambert5_normal.png"
    }
  ],
  "materials": [
    {
      "alphaMode": "BLEND",
      "doubleSided": true,
      "name": "lambert5",
      "normalTexture": {
        "index": 2
      },
      "occlusionTexture": {
        "index": 1
      },
      "pbrMetallicRoughness": {
        "baseColorTexture": {
          "index": 0
        },
        "metallicFactor": 0,
        "metallicRoughnessTexture": {
          "index": 1
        }
      }
    }
  ],
  "meshes": [
    {
      "name": "awil_werewolf_runtime_joined",
      "primitives": [
        {
          "attributes": {
            "NORMAL": 1,
            "POSITION": 0,
            "TANGENT": 2,
            "TEXCOORD_0": 3
          },
          "indices": 4,
          "material": 0
        }
      ]
    }
  ],
  "nodes": [
    {
      "mesh": 0,
      "name": "awil_werewolf_runtime"
    }
  ],
  "samplers": [
    {
      "magFilter": 9729,
      "minFilter": 9987,
      "wrapS": 10497,
      "wrapT": 10497
    }
  ],
  "scene": 0,
  "scenes": [
    {
      "nodes": [
        0
      ]
    }
  ],
  "textures": [
    {
      "sampler": 0,
      "source": 0
    },
    {
      "sampler": 0,
      "source": 1
    },
    {
      "sampler": 0,
      "source": 2
    }
  ]
}
