{
  "asset": {
    "generator": "glTF-Transform v4.3.0",
    "version": "2.0",
    "extras": {
      "author": "yanbelmont (https://sketchfab.com/yanbelmont)",
      "license": "CC-BY-4.0 (http://creativecommons.org/licenses/by/4.0/)",
      "source": "https://sketchfab.com/3d-models/minotaur-145f932b3f8b4b7c8fb4feee1bf25404",
      "title": "Minotaur"
    }
  },
  "accessors": [
    {
      "type": "VEC3",
      "componentType": 5126,
      "count": 345,
      "max": [
        0.2534869313240051,
        -0.9570255279541016,
        5.912250995635986
      ],
      "min": [
        -3.980316400527954,
        -12.280688285827637,
        -1.6026321649551392
      ],
      "bufferView": 0,
      "byteOffset": 0
    },
    {
      "type": "VEC3",
      "componentType": 5126,
      "count": 345,
      "bufferView": 0,
      "byteOffset": 12
    },
    {
      "type": "VEC4",
      "componentType": 5126,
      "count": 345,
      "bufferView": 0,
      "byteOffset": 24
    },
    {
      "type": "SCALAR",
      "componentType": 5123,
      "count": 1800,
      "bufferView": 1,
      "byteOffset": 0
    },
    {
      "type": "SCALAR",
      "componentType": 5123,
      "count": 2538,
      "bufferView": 1,
      "byteOffset": 3600
    },
    {
      "type": "SCALAR",
      "componentType": 5123,
      "count": 1581,
      "bufferView": 1,
      "byteOffset": 8676
    },
    {
      "type": "SCALAR",
      "componentType": 5123,
      "count": 1359,
      "bufferView": 1,
      "byteOffset": 11840
    },
    {
      "type": "SCALAR",
      "componentType": 5123,
      "count": 1857,
      "bufferView": 1,
      "byteOffset": 14560
    },
    {
      "type": "SCALAR",
      "componentType": 5123,
      "count": 1935,
      "bufferView": 1,
      "byteOffset": 18276
    },
    {
      "type": "SCALAR",
      "componentType": 5123,
      "count": 1341,
      "bufferView": 1,
      "byteOffset": 22148
    },
    {
      "type": "SCALAR",
      "componentType": 5123,
      "count": 1293,
      "bufferView": 1,
      "byteOffset": 24832
    },
    {
      "type": "SCALAR",
      "componentType": 5123,
      "count": 1515,
      "bufferView": 1,
      "byteOffset": 27420
    },
    {
      "type": "SCALAR",
      "componentType": 5123,
      "count": 1320,
      "bufferView": 1,
      "byteOffset": 30452
    },
    {
      "type": "SCALAR",
      "componentType": 5123,
      "count": 672,
      "bufferView": 1,
      "byteOffset": 33092
    },
    {
      "type": "SCALAR",
      "componentType": 5123,
      "count": 360,
      "bufferView": 1,
      "byteOffset": 34436
    },
    {
      "type": "SCALAR",
      "componentType": 5123,
      "count": 2961,
      "bufferView": 1,
      "byteOffset": 35156
    },
    {
      "type": "SCALAR",
      "componentType": 5123,
      "count": 3447,
      "bufferView": 1,
      "byteOffset": 41080
    },
    {
      "type": "SCALAR",
      "componentType": 5123,
      "count": 4653,
      "bufferView": 1,
      "byteOffset": 47976
    },
    {
      "type": "SCALAR",
      "componentType": 5123,
      "count": 1011,
      "bufferView": 1,
      "byteOffset": 57284
    },
    {
      "type": "SCALAR",
      "componentType": 5123,
      "count": 1278,
      "bufferView": 1,
      "byteOffset": 59308
    },
    {
      "type": "VEC3",
      "componentType": 5126,
      "count": 507,
      "max": [
        2.4964969158172607,
        0.7507947087287903,
        5.560586929321289
      ],
      "min": [
        -4.125638008117676,
        -12.137303352355957,
        -1.2624924182891846
      ],
      "bufferView": 2,
      "byteOffset": 0
    },
    {
      "type": "VEC3",
      "componentType": 5126,
      "count": 507,
      "bufferView": 2,
      "byteOffset": 12
    },
    {
      "type": "VEC4",
      "componentType": 5126,
      "count": 507,
      "bufferView": 2,
      "byteOffset": 24
    },
    {
      "type": "VEC3",
      "componentType": 5126,
      "count": 326,
      "max": [
        2.4272069931030273,
        -1.1345727443695068,
        3.705500364303589
      ],
      "min": [
        -4.279873847961426,
        -12.116241455078125,
        -1.2970590591430664
      ],
      "bufferView": 3,
      "byteOffset": 0
    },
    {
      "type": "VEC3",
      "componentType": 5126,
      "count": 326,
      "bufferView": 3,
      "byteOffset": 12
    },
    {
      "type": "VEC4",
      "componentType": 5126,
      "count": 326,
      "bufferView": 3,
      "byteOffset": 24
    },
    {
      "type": "VEC3",
      "componentType": 5126,
      "count": 301,
      "max": [
        2.4488539695739746,
        -3.157482385635376,
        1.9920207262039185
      ],
      "min": [
        -4.244134426116943,
        -11.999823570251465,
        -1.3138461112976074
      ],
      "bufferView": 4,
      "byteOffset": 0
    },
    {
      "type": "VEC3",
      "componentType": 5126,
      "count": 301,
      "bufferView": 4,
      "byteOffset": 12
    },
    {
      "type": "VEC4",
      "componentType": 5126,
      "count": 301,
      "bufferView": 4,
      "byteOffset": 24
    },
    {
      "type": "VEC3",
      "componentType": 5126,
      "count": 389,
      "max": [
        3.824087619781494,
        -0.2720872461795807,
        2.6109538078308105
      ],
      "min": [
        -1.1564167737960815,
        -7.930289268493652,
        -1.7038352489471436
      ],
      "bufferView": 5,
      "byteOffset": 0
    },
    {
      "type": "VEC3",
      "componentType": 5126,
      "count": 389,
      "bufferView": 5,
      "byteOffset": 12
    },
    {
      "type": "VEC4",
      "componentType": 5126,
      "count": 389,
      "bufferView": 5,
      "byteOffset": 24
    },
    {
      "type": "VEC3",
      "componentType": 5126,
      "count": 376,
      "max": [
        3.8118462562561035,
        1.3833516836166382,
        2.5589795112609863
      ],
      "min": [
        -1.394694447517395,
        -5.429261684417725,
        -1.737707495689392
      ],
      "bufferView": 6,
      "byteOffset": 0
    },
    {
      "type": "VEC3",
      "componentType": 5126,
      "count": 376,
      "bufferView": 6,
      "byteOffset": 12
    },
    {
      "type": "VEC4",
      "componentType": 5126,
      "count": 376,
      "bufferView": 6,
      "byteOffset": 24
    },
    {
      "type": "VEC3",
      "componentType": 5126,
      "count": 297,
      "max": [
        2.815324068069458,
        1.3581489324569702,
        2.2317166328430176
      ],
      "min": [
        -2.218125343322754,
        -1.827256202697754,
        -1.9169539213180542
      ],
      "bufferView": 7,
      "byteOffset": 0
    },
    {
      "type": "VEC3",
      "componentType": 5126,
      "count": 297,
      "bufferView": 7,
      "byteOffset": 12
    },
    {
      "type": "VEC4",
      "componentType": 5126,
      "count": 297,
      "bufferView": 7,
      "byteOffset": 24
    },
    {
      "type": "VEC3",
      "componentType": 5126,
      "count": 331,
      "max": [
        2.739001512527466,
        1.1865782737731934,
        2.268150806427002
      ],
      "min": [
        -2.9002432823181152,
        -9.117006301879883,
        -1.878562092781067
      ],
      "bufferView": 8,
      "byteOffset": 0
    },
    {
      "type": "VEC3",
      "componentType": 5126,
      "count": 331,
      "bufferView": 8,
      "byteOffset": 12
    },
    {
      "type": "VEC4",
      "componentType": 5126,
      "count": 331,
      "bufferView": 8,
      "byteOffset": 24
    },
    {
      "type": "VEC3",
      "componentType": 5126,
      "count": 299,
      "max": [
        4.114034175872803,
        -2.775402784347534,
        2.9342539310455322
      ],
      "min": [
        -1.708644986152649,
        -8.977434158325195,
        -3.1487677097320557
      ],
      "bufferView": 9,
      "byteOffset": 0
    },
    {
      "type": "VEC3",
      "componentType": 5126,
      "count": 299,
      "bufferView": 9,
      "byteOffset": 12
    },
    {
      "type": "VEC4",
      "componentType": 5126,
      "count": 299,
      "bufferView": 9,
      "byteOffset": 24
    },
    {
      "type": "VEC3",
      "componentType": 5126,
      "count": 401,
      "max": [
        4.048576831817627,
        -1.6609171628952026,
        3.3559365272521973
      ],
      "min": [
        -3.4915270805358887,
        -9.187432289123535,
        -3.092470169067383
      ],
      "bufferView": 10,
      "byteOffset": 0
    },
    {
      "type": "VEC3",
      "componentType": 5126,
      "count": 401,
      "bufferView": 10,
      "byteOffset": 12
    },
    {
      "type": "VEC4",
      "componentType": 5126,
      "count": 401,
      "bufferView": 10,
      "byteOffset": 24
    },
    {
      "type": "VEC3",
      "componentType": 5126,
      "count": 224,
      "max": [
        0.1485413759946823,
        -4.260103225708008,
        3.4377732276916504
      ],
      "min": [
        -4.248003005981445,
        -11.167448997497559,
        -1.3667162656784058
      ],
      "bufferView": 11,
      "byteOffset": 0
    },
    {
      "type": "VEC3",
      "componentType": 5126,
      "count": 224,
      "bufferView": 11,
      "byteOffset": 12
    },
    {
      "type": "VEC4",
      "componentType": 5126,
      "count": 224,
      "bufferView": 11,
      "byteOffset": 24
    },
    {
      "type": "VEC3",
      "componentType": 5126,
      "count": 64,
      "max": [
        0.578569233417511,
        0.5820856094360352,
        -0.6167128086090088
      ],
      "min": [
        -0.7834928631782532,
        0.17592033743858337,
        -1.2116563320159912
      ],
      "bufferView": 12,
      "byteOffset": 0
    },
    {
      "type": "VEC3",
      "componentType": 5126,
      "count": 64,
      "bufferView": 12,
      "byteOffset": 12
    },
    {
      "type": "VEC4",
      "componentType": 5126,
      "count": 64,
      "bufferView": 12,
      "byteOffset": 24
    },
    {
      "type": "VEC3",
      "componentType": 5126,
      "count": 535,
      "max": [
        -0.1003735139966011,
        2.025120973587036,
        0.7847141027450562
      ],
      "min": [
        -2.613934278488159,
        0.5381534695625305,
        -0.6464057564735413
      ],
      "bufferView": 13,
      "byteOffset": 0
    },
    {
      "type": "VEC3",
      "componentType": 5126,
      "count": 535,
      "bufferView": 13,
      "byteOffset": 12
    },
    {
      "type": "VEC4",
      "componentType": 5126,
      "count": 535,
      "bufferView": 13,
      "byteOffset": 24
    },
    {
      "type": "VEC3",
      "componentType": 5126,
      "count": 630,
      "max": [
        2.6096484661102295,
        1.4185328483581543,
        0.763812243938446
      ],
      "min": [
        -1.9067705869674683,
        0.5526058077812195,
        -1.02549147605896
      ],
      "bufferView": 14,
      "byteOffset": 0
    },
    {
      "type": "VEC3",
      "componentType": 5126,
      "count": 630,
      "bufferView": 14,
      "byteOffset": 12
    },
    {
      "type": "VEC4",
      "componentType": 5126,
      "count": 630,
      "bufferView": 14,
      "byteOffset": 24
    },
    {
      "type": "VEC3",
      "componentType": 5126,
      "count": 840,
      "max": [
        2.619638681411743,
        1.6690077781677246,
        0.13929568231105804
      ],
      "min": [
        0.4682052433490753,
        0.5522820949554443,
        -1.7113184928894043
      ],
      "bufferView": 15,
      "byteOffset": 0
    },
    {
      "type": "VEC3",
      "componentType": 5126,
      "count": 840,
      "bufferView": 15,
      "byteOffset": 12
    },
    {
      "type": "VEC4",
      "componentType": 5126,
      "count": 840,
      "bufferView": 15,
      "byteOffset": 24
    },
    {
      "type": "VEC3",
      "componentType": 5126,
      "count": 243,
      "max": [
        2.64397931098938,
        2.1437063217163086,
        0.5662462711334229
      ],
      "min": [
        -0.7731485366821289,
        0.5617672801017761,
        -2.3351919651031494
      ],
      "bufferView": 16,
      "byteOffset": 0
    },
    {
      "type": "VEC3",
      "componentType": 5126,
      "count": 243,
      "bufferView": 16,
      "byteOffset": 12
    },
    {
      "type": "VEC4",
      "componentType": 5126,
      "count": 243,
      "bufferView": 16,
      "byteOffset": 24
    },
    {
      "type": "VEC3",
      "componentType": 5126,
      "count": 247,
      "max": [
        5.160922527313232,
        -11.906644821166992,
        5.117192268371582
      ],
      "min": [
        -5.060822486877441,
        -13.324274063110352,
        -4.86195182800293
      ],
      "bufferView": 17,
      "byteOffset": 0
    },
    {
      "type": "VEC3",
      "componentType": 5126,
      "count": 247,
      "bufferView": 17,
      "byteOffset": 12
    },
    {
      "type": "VEC4",
      "componentType": 5126,
      "count": 247,
      "bufferView": 17,
      "byteOffset": 24
    }
  ],
  "bufferViews": [
    {
      "buffer": 0,
      "byteOffset": 0,
      "byteLength": 13800,
      "byteStride": 40,
      "target": 34962
    },
    {
      "buffer": 0,
      "byteOffset": 13800,
      "byteLength": 61864,
      "target": 34963
    },
    {
      "buffer": 0,
      "byteOffset": 75664,
      "byteLength": 20280,
      "byteStride": 40,
      "target": 34962
    },
    {
      "buffer": 0,
      "byteOffset": 95944,
      "byteLength": 13040,
      "byteStride": 40,
      "target": 34962
    },
    {
      "buffer": 0,
      "byteOffset": 108984,
      "byteLength": 12040,
      "byteStride": 40,
      "target": 34962
    },
    {
      "buffer": 0,
      "byteOffset": 121024,
      "byteLength": 15560,
      "byteStride": 40,
      "target": 34962
    },
    {
      "buffer": 0,
      "byteOffset": 136584,
      "byteLength": 15040,
      "byteStride": 40,
      "target": 34962
    },
    {
      "buffer": 0,
      "byteOffset": 151624,
      "byteLength": 11880,
      "byteStride": 40,
      "target": 34962
    },
    {
      "buffer": 0,
      "byteOffset": 163504,
      "byteLength": 13240,
      "byteStride": 40,
      "target": 34962
    },
    {
      "buffer": 0,
      "byteOffset": 176744,
      "byteLength": 11960,
      "byteStride": 40,
      "target": 34962
    },
    {
      "buffer": 0,
      "byteOffset": 188704,
      "byteLength": 16040,
      "byteStride": 40,
      "target": 34962
    },
    {
      "buffer": 0,
      "byteOffset": 204744,
      "byteLength": 8960,
      "byteStride": 40,
      "target": 34962
    },
    {
      "buffer": 0,
      "byteOffset": 213704,
      "byteLength": 2560,
      "byteStride": 40,
      "target": 34962
    },
    {
      "buffer": 0,
      "byteOffset": 216264,
      "byteLength": 21400,
      "byteStride": 40,
      "target": 34962
    },
    {
      "buffer": 0,
      "byteOffset": 237664,
      "byteLength": 25200,
      "byteStride": 40,
      "target": 34962
    },
    {
      "buffer": 0,
      "byteOffset": 262864,
      "byteLength": 33600,
      "byteStride": 40,
      "target": 34962
    },
    {
      "buffer": 0,
      "byteOffset": 296464,
      "byteLength": 9720,
      "byteStride": 40,
      "target": 34962
    },
    {
      "buffer": 0,
      "byteOffset": 306184,
      "byteLength": 9880,
      "byteStride": 40,
      "target": 34962
    }
  ],
  "buffers": [
    {
      "uri": "scene.bin",
      "byteLength": 316064
    }
  ],
  "materials": [
    {
      "name": "material0",
      "doubleSided": true,
      "pbrMetallicRoughness": {
        "baseColorFactor": [
          0.5,
          0.5,
          0.5,
          1
        ],
        "metallicFactor": 0
      }
    },
    {
      "name": "material0_0",
      "doubleSided": true,
      "pbrMetallicRoughness": {
        "baseColorFactor": [
          0.5,
          0.5,
          0.5,
          1
        ],
        "metallicFactor": 0
      }
    },
    {
      "name": "material0_1",
      "doubleSided": true,
      "pbrMetallicRoughness": {
        "baseColorFactor": [
          0.5,
          0.5,
          0.5,
          1
        ],
        "metallicFactor": 0
      }
    },
    {
      "name": "material0_2",
      "doubleSided": true,
      "pbrMetallicRoughness": {
        "baseColorFactor": [
          0.5,
          0.5,
          0.5,
          1
        ],
        "metallicFactor": 0
      }
    }
  ],
  "meshes": [
    {
      "name": "minotaur43_material0_0",
      "primitives": [
        {
          "attributes": {
            "COLOR_0": 2,
            "NORMAL": 1,
            "POSITION": 0
          },
          "mode": 4,
          "material": 0,
          "indices": 3
        }
      ]
    },
    {
      "name": "minotaur43_material0_0",
      "primitives": [
        {
          "attributes": {
            "COLOR_0": 22,
            "NORMAL": 21,
            "POSITION": 20
          },
          "mode": 4,
          "material": 0,
          "indices": 4
        }
      ]
    },
    {
      "name": "minotaur43_material0_0",
      "primitives": [
        {
          "attributes": {
            "COLOR_0": 25,
            "NORMAL": 24,
            "POSITION": 23
          },
          "mode": 4,
          "material": 0,
          "indices": 5
        }
      ]
    },
    {
      "name": "minotaur43_material0_0",
      "primitives": [
        {
          "attributes": {
            "COLOR_0": 28,
            "NORMAL": 27,
            "POSITION": 26
          },
          "mode": 4,
          "material": 0,
          "indices": 6
        }
      ]
    },
    {
      "name": "minotaur43_material0_0",
      "primitives": [
        {
          "attributes": {
            "COLOR_0": 31,
            "NORMAL": 30,
            "POSITION": 29
          },
          "mode": 4,
          "material": 0,
          "indices": 7
        }
      ]
    },
    {
      "name": "minotaur43_material0_0",
      "primitives": [
        {
          "attributes": {
            "COLOR_0": 34,
            "NORMAL": 33,
            "POSITION": 32
          },
          "mode": 4,
          "material": 0,
          "indices": 8
        }
      ]
    },
    {
      "name": "minotaur43_material0_0",
      "primitives": [
        {
          "attributes": {
            "COLOR_0": 37,
            "NORMAL": 36,
            "POSITION": 35
          },
          "mode": 4,
          "material": 0,
          "indices": 9
        }
      ]
    },
    {
      "name": "minotaur43_material0_0",
      "primitives": [
        {
          "attributes": {
            "COLOR_0": 40,
            "NORMAL": 39,
            "POSITION": 38
          },
          "mode": 4,
          "material": 0,
          "indices": 10
        }
      ]
    },
    {
      "name": "minotaur43_material0_0",
      "primitives": [
        {
          "attributes": {
            "COLOR_0": 43,
            "NORMAL": 42,
            "POSITION": 41
          },
          "mode": 4,
          "material": 0,
          "indices": 11
        }
      ]
    },
    {
      "name": "minotaur43_material0_0",
      "primitives": [
        {
          "attributes": {
            "COLOR_0": 46,
            "NORMAL": 45,
            "POSITION": 44
          },
          "mode": 4,
          "material": 0,
          "indices": 12
        }
      ]
    },
    {
      "name": "minotaur43_material0_0",
      "primitives": [
        {
          "attributes": {
            "COLOR_0": 49,
            "NORMAL": 48,
            "POSITION": 47
          },
          "mode": 4,
          "material": 0,
          "indices": 13
        }
      ]
    },
    {
      "name": "Olhos_material0_0",
      "primitives": [
        {
          "attributes": {
            "COLOR_0": 52,
            "NORMAL": 51,
            "POSITION": 50
          },
          "mode": 4,
          "material": 1,
          "indices": 14
        }
      ]
    },
    {
      "name": "Chifre_material0_0",
      "primitives": [
        {
          "attributes": {
            "COLOR_0": 55,
            "NORMAL": 54,
            "POSITION": 53
          },
          "mode": 4,
          "material": 2,
          "indices": 15
        }
      ]
    },
    {
      "name": "Chifre_material0_0",
      "primitives": [
        {
          "attributes": {
            "COLOR_0": 58,
            "NORMAL": 57,
            "POSITION": 56
          },
          "mode": 4,
          "material": 2,
          "indices": 16
        }
      ]
    },
    {
      "name": "Chifre_material0_0",
      "primitives": [
        {
          "attributes": {
            "COLOR_0": 61,
            "NORMAL": 60,
            "POSITION": 59
          },
          "mode": 4,
          "material": 2,
          "indices": 17
        }
      ]
    },
    {
      "name": "Chifre_material0_0",
      "primitives": [
        {
          "attributes": {
            "COLOR_0": 64,
            "NORMAL": 63,
            "POSITION": 62
          },
          "mode": 4,
          "material": 2,
          "indices": 18
        }
      ]
    },
    {
      "name": "Base_material0_0",
      "primitives": [
        {
          "attributes": {
            "COLOR_0": 67,
            "NORMAL": 66,
            "POSITION": 65
          },
          "mode": 4,
          "material": 3,
          "indices": 19
        }
      ]
    }
  ],
  "nodes": [
    {
      "name": "Sketchfab_model",
      "rotation": [
        -0.7071067811865475,
        0,
        0,
        0.7071067811865476
      ],
      "children": [
        1
      ]
    },
    {
      "name": "67661cb8ec594d979e7a7f37bb7e7f9c.fbx",
      "rotation": [
        0.7071067811865475,
        0,
        0,
        0.7071067811865476
      ],
      "children": [
        2
      ]
    },
    {
      "name": "RootNode",
      "children": [
        3,
        15,
        17,
        22
      ]
    },
    {
      "name": "minotaur43",
      "children": [
        4,
        5,
        6,
        7,
        8,
        9,
        10,
        11,
        12,
        13,
        14
      ]
    },
    {
      "name": "minotaur43_material0_0",
      "mesh": 0
    },
    {
      "name": "minotaur43_material0_0",
      "mesh": 1
    },
    {
      "name": "minotaur43_material0_0",
      "mesh": 2
    },
    {
      "name": "minotaur43_material0_0",
      "mesh": 3
    },
    {
      "name": "minotaur43_material0_0",
      "mesh": 4
    },
    {
      "name": "minotaur43_material0_0",
      "mesh": 5
    },
    {
      "name": "minotaur43_material0_0",
      "mesh": 6
    },
    {
      "name": "minotaur43_material0_0",
      "mesh": 7
    },
    {
      "name": "minotaur43_material0_0",
      "mesh": 8
    },
    {
      "name": "minotaur43_material0_0",
      "mesh": 9
    },
    {
      "name": "minotaur43_material0_0",
      "mesh": 10
    },
    {
      "name": "Olhos",
      "children": [
        16
      ]
    },
    {
      "name": "Olhos_material0_0",
      "mesh": 11
    },
    {
      "name": "Chifre",
      "children": [
        18,
        19,
        20,
        21
      ]
    },
    {
      "name": "Chifre_material0_0",
      "mesh": 12
    },
    {
      "name": "Chifre_material0_0",
      "mesh": 13
    },
    {
      "name": "Chifre_material0_0",
      "mesh": 14
    },
    {
      "name": "Chifre_material0_0",
      "mesh": 15
    },
    {
      "name": "Base",
      "children": [
        23
      ]
    },
    {
      "name": "Base_material0_0",
      "mesh": 16
    }
  ],
  "scenes": [
    {
      "name": "Sketchfab_Scene",
      "nodes": [
        0
      ]
    }
  ],
  "scene": 0
}