{
  "asset": {
    "generator": "glTF-Transform v4.3.0",
    "version": "2.0",
    "extras": {
      "author": "yanbelmont (https://sketchfab.com/yanbelmont)",
      "license": "CC-BY-4.0 (http://creativecommons.org/licenses/by/4.0/)",
      "source": "https://sketchfab.com/3d-models/minotaur-145f932b3f8b4b7c8fb4feee1bf25404",
      "title": "Minotaur"
    }
  },
  "accessors": [
    {
      "type": "VEC3",
      "componentType": 5126,
      "count": 357,
      "max": [
        0.2534869313240051,
        -0.9766771197319031,
        5.947025775909424
      ],
      "min": [
        -3.9851620197296143,
        -12.255461692810059,
        -1.5351924896240234
      ],
      "bufferView": 0,
      "byteOffset": 0
    },
    {
      "type": "VEC3",
      "componentType": 5126,
      "count": 357,
      "bufferView": 0,
      "byteOffset": 12
    },
    {
      "type": "VEC4",
      "componentType": 5126,
      "count": 357,
      "bufferView": 0,
      "byteOffset": 24
    },
    {
      "type": "SCALAR",
      "componentType": 5123,
      "count": 1878,
      "bufferView": 1,
      "byteOffset": 0
    },
    {
      "type": "SCALAR",
      "componentType": 5123,
      "count": 2586,
      "bufferView": 1,
      "byteOffset": 3756
    },
    {
      "type": "SCALAR",
      "componentType": 5123,
      "count": 1620,
      "bufferView": 1,
      "byteOffset": 8928
    },
    {
      "type": "SCALAR",
      "componentType": 5123,
      "count": 1230,
      "bufferView": 1,
      "byteOffset": 12168
    },
    {
      "type": "SCALAR",
      "componentType": 5123,
      "count": 1908,
      "bufferView": 1,
      "byteOffset": 14628
    },
    {
      "type": "SCALAR",
      "componentType": 5123,
      "count": 2049,
      "bufferView": 1,
      "byteOffset": 18444
    },
    {
      "type": "SCALAR",
      "componentType": 5123,
      "count": 1425,
      "bufferView": 1,
      "byteOffset": 22544
    },
    {
      "type": "SCALAR",
      "componentType": 5123,
      "count": 726,
      "bufferView": 1,
      "byteOffset": 25396
    },
    {
      "type": "SCALAR",
      "componentType": 5123,
      "count": 1623,
      "bufferView": 1,
      "byteOffset": 26848
    },
    {
      "type": "SCALAR",
      "componentType": 5123,
      "count": 375,
      "bufferView": 1,
      "byteOffset": 30096
    },
    {
      "type": "SCALAR",
      "componentType": 5123,
      "count": 192,
      "bufferView": 1,
      "byteOffset": 30848
    },
    {
      "type": "SCALAR",
      "componentType": 5123,
      "count": 102,
      "bufferView": 1,
      "byteOffset": 31232
    },
    {
      "type": "SCALAR",
      "componentType": 5123,
      "count": 3357,
      "bufferView": 1,
      "byteOffset": 31436
    },
    {
      "type": "SCALAR",
      "componentType": 5123,
      "count": 3603,
      "bufferView": 1,
      "byteOffset": 38152
    },
    {
      "type": "SCALAR",
      "componentType": 5123,
      "count": 4878,
      "bufferView": 1,
      "byteOffset": 45360
    },
    {
      "type": "SCALAR",
      "componentType": 5123,
      "count": 387,
      "bufferView": 1,
      "byteOffset": 55116
    },
    {
      "type": "SCALAR",
      "componentType": 5123,
      "count": 1002,
      "bufferView": 1,
      "byteOffset": 55892
    },
    {
      "type": "VEC3",
      "componentType": 5126,
      "count": 521,
      "max": [
        2.4964969158172607,
        0.7507947087287903,
        5.772459030151367
      ],
      "min": [
        -4.125638008117676,
        -12.137303352355957,
        -1.337328314781189
      ],
      "bufferView": 2,
      "byteOffset": 0
    },
    {
      "type": "VEC3",
      "componentType": 5126,
      "count": 521,
      "bufferView": 2,
      "byteOffset": 12
    },
    {
      "type": "VEC4",
      "componentType": 5126,
      "count": 521,
      "bufferView": 2,
      "byteOffset": 24
    },
    {
      "type": "VEC3",
      "componentType": 5126,
      "count": 340,
      "max": [
        2.4272069931030273,
        -0.9073911905288696,
        3.5305404663085938
      ],
      "min": [
        -4.302645683288574,
        -12.111598014831543,
        -1.1865870952606201
      ],
      "bufferView": 3,
      "byteOffset": 0
    },
    {
      "type": "VEC3",
      "componentType": 5126,
      "count": 340,
      "bufferView": 3,
      "byteOffset": 12
    },
    {
      "type": "VEC4",
      "componentType": 5126,
      "count": 340,
      "bufferView": 3,
      "byteOffset": 24
    },
    {
      "type": "VEC3",
      "componentType": 5126,
      "count": 262,
      "max": [
        2.2243399620056152,
        -3.2127411365509033,
        1.9630403518676758
      ],
      "min": [
        -3.9985697269439697,
        -11.999823570251465,
        -1.3138461112976074
      ],
      "bufferView": 4,
      "byteOffset": 0
    },
    {
      "type": "VEC3",
      "componentType": 5126,
      "count": 262,
      "bufferView": 4,
      "byteOffset": 12
    },
    {
      "type": "VEC4",
      "componentType": 5126,
      "count": 262,
      "bufferView": 4,
      "byteOffset": 24
    },
    {
      "type": "VEC3",
      "componentType": 5126,
      "count": 398,
      "max": [
        3.824087619781494,
        -0.2720872461795807,
        2.6109538078308105
      ],
      "min": [
        -1.0735973119735718,
        -7.930289268493652,
        -1.7038352489471436
      ],
      "bufferView": 5,
      "byteOffset": 0
    },
    {
      "type": "VEC3",
      "componentType": 5126,
      "count": 398,
      "bufferView": 5,
      "byteOffset": 12
    },
    {
      "type": "VEC4",
      "componentType": 5126,
      "count": 398,
      "bufferView": 5,
      "byteOffset": 24
    },
    {
      "type": "VEC3",
      "componentType": 5126,
      "count": 405,
      "max": [
        3.8313496112823486,
        1.3842662572860718,
        2.5589795112609863
      ],
      "min": [
        -1.6376796960830688,
        -5.223117828369141,
        -1.737707495689392
      ],
      "bufferView": 6,
      "byteOffset": 0
    },
    {
      "type": "VEC3",
      "componentType": 5126,
      "count": 405,
      "bufferView": 6,
      "byteOffset": 12
    },
    {
      "type": "VEC4",
      "componentType": 5126,
      "count": 405,
      "bufferView": 6,
      "byteOffset": 24
    },
    {
      "type": "VEC3",
      "componentType": 5126,
      "count": 319,
      "max": [
        2.815324068069458,
        1.3307617902755737,
        2.2317166328430176
      ],
      "min": [
        -2.218125343322754,
        -1.8587722778320312,
        -1.9169539213180542
      ],
      "bufferView": 7,
      "byteOffset": 0
    },
    {
      "type": "VEC3",
      "componentType": 5126,
      "count": 319,
      "bufferView": 7,
      "byteOffset": 12
    },
    {
      "type": "VEC4",
      "componentType": 5126,
      "count": 319,
      "bufferView": 7,
      "byteOffset": 24
    },
    {
      "type": "VEC3",
      "componentType": 5126,
      "count": 158,
      "max": [
        1.5612455606460571,
        0.6717137098312378,
        2.2392594814300537
      ],
      "min": [
        -2.767263174057007,
        -9.117006301879883,
        -1.1368789672851562
      ],
      "bufferView": 8,
      "byteOffset": 0
    },
    {
      "type": "VEC3",
      "componentType": 5126,
      "count": 158,
      "bufferView": 8,
      "byteOffset": 12
    },
    {
      "type": "VEC4",
      "componentType": 5126,
      "count": 158,
      "bufferView": 8,
      "byteOffset": 24
    },
    {
      "type": "VEC3",
      "componentType": 5126,
      "count": 319,
      "max": [
        4.114034175872803,
        -2.775402784347534,
        2.9342539310455322
      ],
      "min": [
        -1.708644986152649,
        -8.977434158325195,
        -3.1487677097320557
      ],
      "bufferView": 9,
      "byteOffset": 0
    },
    {
      "type": "VEC3",
      "componentType": 5126,
      "count": 319,
      "bufferView": 9,
      "byteOffset": 12
    },
    {
      "type": "VEC4",
      "componentType": 5126,
      "count": 319,
      "bufferView": 9,
      "byteOffset": 24
    },
    {
      "type": "VEC3",
      "componentType": 5126,
      "count": 110,
      "max": [
        3.8892264366149902,
        -2.4477035999298096,
        3.1729700565338135
      ],
      "min": [
        -3.4915270805358887,
        -9.187432289123535,
        -2.9791297912597656
      ],
      "bufferView": 10,
      "byteOffset": 0
    },
    {
      "type": "VEC3",
      "componentType": 5126,
      "count": 110,
      "bufferView": 10,
      "byteOffset": 12
    },
    {
      "type": "VEC4",
      "componentType": 5126,
      "count": 110,
      "bufferView": 10,
      "byteOffset": 24
    },
    {
      "type": "VEC3",
      "componentType": 5126,
      "count": 62,
      "max": [
        -0.7564848065376282,
        -4.713035583496094,
        1.4661906957626343
      ],
      "min": [
        -4.134246349334717,
        -11.091743469238281,
        -1.236777424812317
      ],
      "bufferView": 11,
      "byteOffset": 0
    },
    {
      "type": "VEC3",
      "componentType": 5126,
      "count": 62,
      "bufferView": 11,
      "byteOffset": 12
    },
    {
      "type": "VEC4",
      "componentType": 5126,
      "count": 62,
      "bufferView": 11,
      "byteOffset": 24
    },
    {
      "type": "VEC3",
      "componentType": 5126,
      "count": 21,
      "max": [
        0.5478066205978394,
        0.6019358038902283,
        -0.634764552116394
      ],
      "min": [
        -0.7518452405929565,
        0.18249790370464325,
        -1.1873538494110107
      ],
      "bufferView": 12,
      "byteOffset": 0
    },
    {
      "type": "VEC3",
      "componentType": 5126,
      "count": 21,
      "bufferView": 12,
      "byteOffset": 12
    },
    {
      "type": "VEC4",
      "componentType": 5126,
      "count": 21,
      "bufferView": 12,
      "byteOffset": 24
    },
    {
      "type": "VEC3",
      "componentType": 5126,
      "count": 598,
      "max": [
        -0.1003735139966011,
        2.1744682788848877,
        0.7847141027450562
      ],
      "min": [
        -2.617309093475342,
        0.5381534695625305,
        -1.0935556888580322
      ],
      "bufferView": 13,
      "byteOffset": 0
    },
    {
      "type": "VEC3",
      "componentType": 5126,
      "count": 598,
      "bufferView": 13,
      "byteOffset": 12
    },
    {
      "type": "VEC4",
      "componentType": 5126,
      "count": 598,
      "bufferView": 13,
      "byteOffset": 24
    },
    {
      "type": "VEC3",
      "componentType": 5126,
      "count": 659,
      "max": [
        2.6096484661102295,
        1.4363917112350464,
        0.763812243938446
      ],
      "min": [
        -2.3368260860443115,
        0.5527781248092651,
        -1.02549147605896
      ],
      "bufferView": 14,
      "byteOffset": 0
    },
    {
      "type": "VEC3",
      "componentType": 5126,
      "count": 659,
      "bufferView": 14,
      "byteOffset": 12
    },
    {
      "type": "VEC4",
      "componentType": 5126,
      "count": 659,
      "bufferView": 14,
      "byteOffset": 24
    },
    {
      "type": "VEC3",
      "componentType": 5126,
      "count": 877,
      "max": [
        2.619638681411743,
        1.6690077781677246,
        0.13929568231105804
      ],
      "min": [
        0.46498245000839233,
        0.5335006713867188,
        -1.7113184928894043
      ],
      "bufferView": 15,
      "byteOffset": 0
    },
    {
      "type": "VEC3",
      "componentType": 5126,
      "count": 877,
      "bufferView": 15,
      "byteOffset": 12
    },
    {
      "type": "VEC4",
      "componentType": 5126,
      "count": 877,
      "bufferView": 15,
      "byteOffset": 24
    },
    {
      "type": "VEC3",
      "componentType": 5126,
      "count": 97,
      "max": [
        2.6197476387023926,
        2.153440475463867,
        -0.036598023027181625
      ],
      "min": [
        0.654069185256958,
        0.5837953090667725,
        -2.353911876678467
      ],
      "bufferView": 16,
      "byteOffset": 0
    },
    {
      "type": "VEC3",
      "componentType": 5126,
      "count": 97,
      "bufferView": 16,
      "byteOffset": 12
    },
    {
      "type": "VEC4",
      "componentType": 5126,
      "count": 97,
      "bufferView": 16,
      "byteOffset": 24
    },
    {
      "type": "VEC3",
      "componentType": 5126,
      "count": 251,
      "max": [
        5.048584938049316,
        -11.97616195678711,
        5.090694904327393
      ],
      "min": [
        -5.038473129272461,
        -13.326075553894043,
        -4.837997913360596
      ],
      "bufferView": 17,
      "byteOffset": 0
    },
    {
      "type": "VEC3",
      "componentType": 5126,
      "count": 251,
      "bufferView": 17,
      "byteOffset": 12
    },
    {
      "type": "VEC4",
      "componentType": 5126,
      "count": 251,
      "bufferView": 17,
      "byteOffset": 24
    }
  ],
  "bufferViews": [
    {
      "buffer": 0,
      "byteOffset": 0,
      "byteLength": 14280,
      "byteStride": 40,
      "target": 34962
    },
    {
      "buffer": 0,
      "byteOffset": 14280,
      "byteLength": 57896,
      "target": 34963
    },
    {
      "buffer": 0,
      "byteOffset": 72176,
      "byteLength": 20840,
      "byteStride": 40,
      "target": 34962
    },
    {
      "buffer": 0,
      "byteOffset": 93016,
      "byteLength": 13600,
      "byteStride": 40,
      "target": 34962
    },
    {
      "buffer": 0,
      "byteOffset": 106616,
      "byteLength": 10480,
      "byteStride": 40,
      "target": 34962
    },
    {
      "buffer": 0,
      "byteOffset": 117096,
      "byteLength": 15920,
      "byteStride": 40,
      "target": 34962
    },
    {
      "buffer": 0,
      "byteOffset": 133016,
      "byteLength": 16200,
      "byteStride": 40,
      "target": 34962
    },
    {
      "buffer": 0,
      "byteOffset": 149216,
      "byteLength": 12760,
      "byteStride": 40,
      "target": 34962
    },
    {
      "buffer": 0,
      "byteOffset": 161976,
      "byteLength": 6320,
      "byteStride": 40,
      "target": 34962
    },
    {
      "buffer": 0,
      "byteOffset": 168296,
      "byteLength": 12760,
      "byteStride": 40,
      "target": 34962
    },
    {
      "buffer": 0,
      "byteOffset": 181056,
      "byteLength": 4400,
      "byteStride": 40,
      "target": 34962
    },
    {
      "buffer": 0,
      "byteOffset": 185456,
      "byteLength": 2480,
      "byteStride": 40,
      "target": 34962
    },
    {
      "buffer": 0,
      "byteOffset": 187936,
      "byteLength": 840,
      "byteStride": 40,
      "target": 34962
    },
    {
      "buffer": 0,
      "byteOffset": 188776,
      "byteLength": 23920,
      "byteStride": 40,
      "target": 34962
    },
    {
      "buffer": 0,
      "byteOffset": 212696,
      "byteLength": 26360,
      "byteStride": 40,
      "target": 34962
    },
    {
      "buffer": 0,
      "byteOffset": 239056,
      "byteLength": 35080,
      "byteStride": 40,
      "target": 34962
    },
    {
      "buffer": 0,
      "byteOffset": 274136,
      "byteLength": 3880,
      "byteStride": 40,
      "target": 34962
    },
    {
      "buffer": 0,
      "byteOffset": 278016,
      "byteLength": 10040,
      "byteStride": 40,
      "target": 34962
    }
  ],
  "buffers": [
    {
      "uri": "scene.bin",
      "byteLength": 288056
    }
  ],
  "materials": [
    {
      "name": "material0",
      "doubleSided": true,
      "pbrMetallicRoughness": {
        "baseColorFactor": [
          0.5,
          0.5,
          0.5,
          1
        ],
        "metallicFactor": 0
      }
    },
    {
      "name": "material0_0",
      "doubleSided": true,
      "pbrMetallicRoughness": {
        "baseColorFactor": [
          0.5,
          0.5,
          0.5,
          1
        ],
        "metallicFactor": 0
      }
    },
    {
      "name": "material0_1",
      "doubleSided": true,
      "pbrMetallicRoughness": {
        "baseColorFactor": [
          0.5,
          0.5,
          0.5,
          1
        ],
        "metallicFactor": 0
      }
    },
    {
      "name": "material0_2",
      "doubleSided": true,
      "pbrMetallicRoughness": {
        "baseColorFactor": [
          0.5,
          0.5,
          0.5,
          1
        ],
        "metallicFactor": 0
      }
    }
  ],
  "meshes": [
    {
      "name": "minotaur43_material0_0",
      "primitives": [
        {
          "attributes": {
            "COLOR_0": 2,
            "NORMAL": 1,
            "POSITION": 0
          },
          "mode": 4,
          "material": 0,
          "indices": 3
        }
      ]
    },
    {
      "name": "minotaur43_material0_0",
      "primitives": [
        {
          "attributes": {
            "COLOR_0": 22,
            "NORMAL": 21,
            "POSITION": 20
          },
          "mode": 4,
          "material": 0,
          "indices": 4
        }
      ]
    },
    {
      "name": "minotaur43_material0_0",
      "primitives": [
        {
          "attributes": {
            "COLOR_0": 25,
            "NORMAL": 24,
            "POSITION": 23
          },
          "mode": 4,
          "material": 0,
          "indices": 5
        }
      ]
    },
    {
      "name": "minotaur43_material0_0",
      "primitives": [
        {
          "attributes": {
            "COLOR_0": 28,
            "NORMAL": 27,
            "POSITION": 26
          },
          "mode": 4,
          "material": 0,
          "indices": 6
        }
      ]
    },
    {
      "name": "minotaur43_material0_0",
      "primitives": [
        {
          "attributes": {
            "COLOR_0": 31,
            "NORMAL": 30,
            "POSITION": 29
          },
          "mode": 4,
          "material": 0,
          "indices": 7
        }
      ]
    },
    {
      "name": "minotaur43_material0_0",
      "primitives": [
        {
          "attributes": {
            "COLOR_0": 34,
            "NORMAL": 33,
            "POSITION": 32
          },
          "mode": 4,
          "material": 0,
          "indices": 8
        }
      ]
    },
    {
      "name": "minotaur43_material0_0",
      "primitives": [
        {
          "attributes": {
            "COLOR_0": 37,
            "NORMAL": 36,
            "POSITION": 35
          },
          "mode": 4,
          "material": 0,
          "indices": 9
        }
      ]
    },
    {
      "name": "minotaur43_material0_0",
      "primitives": [
        {
          "attributes": {
            "COLOR_0": 40,
            "NORMAL": 39,
            "POSITION": 38
          },
          "mode": 4,
          "material": 0,
          "indices": 10
        }
      ]
    },
    {
      "name": "minotaur43_material0_0",
      "primitives": [
        {
          "attributes": {
            "COLOR_0": 43,
            "NORMAL": 42,
            "POSITION": 41
          },
          "mode": 4,
          "material": 0,
          "indices": 11
        }
      ]
    },
    {
      "name": "minotaur43_material0_0",
      "primitives": [
        {
          "attributes": {
            "COLOR_0": 46,
            "NORMAL": 45,
            "POSITION": 44
          },
          "mode": 4,
          "material": 0,
          "indices": 12
        }
      ]
    },
    {
      "name": "minotaur43_material0_0",
      "primitives": [
        {
          "attributes": {
            "COLOR_0": 49,
            "NORMAL": 48,
            "POSITION": 47
          },
          "mode": 4,
          "material": 0,
          "indices": 13
        }
      ]
    },
    {
      "name": "Olhos_material0_0",
      "primitives": [
        {
          "attributes": {
            "COLOR_0": 52,
            "NORMAL": 51,
            "POSITION": 50
          },
          "mode": 4,
          "material": 1,
          "indices": 14
        }
      ]
    },
    {
      "name": "Chifre_material0_0",
      "primitives": [
        {
          "attributes": {
            "COLOR_0": 55,
            "NORMAL": 54,
            "POSITION": 53
          },
          "mode": 4,
          "material": 2,
          "indices": 15
        }
      ]
    },
    {
      "name": "Chifre_material0_0",
      "primitives": [
        {
          "attributes": {
            "COLOR_0": 58,
            "NORMAL": 57,
            "POSITION": 56
          },
          "mode": 4,
          "material": 2,
          "indices": 16
        }
      ]
    },
    {
      "name": "Chifre_material0_0",
      "primitives": [
        {
          "attributes": {
            "COLOR_0": 61,
            "NORMAL": 60,
            "POSITION": 59
          },
          "mode": 4,
          "material": 2,
          "indices": 17
        }
      ]
    },
    {
      "name": "Chifre_material0_0",
      "primitives": [
        {
          "attributes": {
            "COLOR_0": 64,
            "NORMAL": 63,
            "POSITION": 62
          },
          "mode": 4,
          "material": 2,
          "indices": 18
        }
      ]
    },
    {
      "name": "Base_material0_0",
      "primitives": [
        {
          "attributes": {
            "COLOR_0": 67,
            "NORMAL": 66,
            "POSITION": 65
          },
          "mode": 4,
          "material": 3,
          "indices": 19
        }
      ]
    }
  ],
  "nodes": [
    {
      "name": "Sketchfab_model",
      "rotation": [
        -0.7071067811865475,
        0,
        0,
        0.7071067811865476
      ],
      "children": [
        1
      ]
    },
    {
      "name": "67661cb8ec594d979e7a7f37bb7e7f9c.fbx",
      "rotation": [
        0.7071067811865475,
        0,
        0,
        0.7071067811865476
      ],
      "children": [
        2
      ]
    },
    {
      "name": "RootNode",
      "children": [
        3,
        15,
        17,
        22
      ]
    },
    {
      "name": "minotaur43",
      "children": [
        4,
        5,
        6,
        7,
        8,
        9,
        10,
        11,
        12,
        13,
        14
      ]
    },
    {
      "name": "minotaur43_material0_0",
      "mesh": 0
    },
    {
      "name": "minotaur43_material0_0",
      "mesh": 1
    },
    {
      "name": "minotaur43_material0_0",
      "mesh": 2
    },
    {
      "name": "minotaur43_material0_0",
      "mesh": 3
    },
    {
      "name": "minotaur43_material0_0",
      "mesh": 4
    },
    {
      "name": "minotaur43_material0_0",
      "mesh": 5
    },
    {
      "name": "minotaur43_material0_0",
      "mesh": 6
    },
    {
      "name": "minotaur43_material0_0",
      "mesh": 7
    },
    {
      "name": "minotaur43_material0_0",
      "mesh": 8
    },
    {
      "name": "minotaur43_material0_0",
      "mesh": 9
    },
    {
      "name": "minotaur43_material0_0",
      "mesh": 10
    },
    {
      "name": "Olhos",
      "children": [
        16
      ]
    },
    {
      "name": "Olhos_material0_0",
      "mesh": 11
    },
    {
      "name": "Chifre",
      "children": [
        18,
        19,
        20,
        21
      ]
    },
    {
      "name": "Chifre_material0_0",
      "mesh": 12
    },
    {
      "name": "Chifre_material0_0",
      "mesh": 13
    },
    {
      "name": "Chifre_material0_0",
      "mesh": 14
    },
    {
      "name": "Chifre_material0_0",
      "mesh": 15
    },
    {
      "name": "Base",
      "children": [
        23
      ]
    },
    {
      "name": "Base_material0_0",
      "mesh": 16
    }
  ],
  "scenes": [
    {
      "name": "Sketchfab_Scene",
      "nodes": [
        0
      ]
    }
  ],
  "scene": 0
}