{
  "accessors": [
    {
      "bufferView": 2,
      "componentType": 5126,
      "count": 3920,
      "max": [
        2.1714391708374023,
        2.1599221229553223,
        0.06209661811590195
      ],
      "min": [
        -2.1714372634887695,
        -2.1599223613739014,
        -0.0620967261493206
      ],
      "type": "VEC3"
    },
    {
      "bufferView": 2,
      "byteOffset": 47040,
      "componentType": 5126,
      "count": 3920,
      "max": [
        1,
        1,
        1
      ],
      "min": [
        -0.9895526170730591,
        -0.975441038608551,
        -1
      ],
      "type": "VEC3"
    },
    {
      "bufferView": 3,
      "componentType": 5126,
      "count": 3920,
      "max": [
        1,
        1,
        0.9962700605392456,
        1
      ],
      "min": [
        -1,
        -1,
        -0.9962700605392456,
        1
      ],
      "type": "VEC4"
    },
    {
      "bufferView": 1,
      "componentType": 5126,
      "count": 3920,
      "max": [
        0.99755859375,
        0.91162109375
      ],
      "min": [
        0.0019083023071289062,
        0.0019083023071289062
      ],
      "type": "VEC2"
    },
    {
      "bufferView": 1,
      "byteOffset": 31360,
      "componentType": 5126,
      "count": 3920,
      "max": [
        3.33984375,
        0.9931640625
      ],
      "min": [
        -0.54443359375,
        0.93310546875
      ],
      "type": "VEC2"
    },
    {
      "bufferView": 1,
      "byteOffset": 62720,
      "componentType": 5126,
      "count": 3920,
      "max": [
        0.99755859375,
        0.91162109375
      ],
      "min": [
        0.0019083023071289062,
        0.0019083023071289062
      ],
      "type": "VEC2"
    },
    {
      "bufferView": 1,
      "byteOffset": 94080,
      "componentType": 5126,
      "count": 3920,
      "max": [
        0.99755859375,
        0.91162109375
      ],
      "min": [
        0.0019083023071289062,
        0.0019083023071289062
      ],
      "type": "VEC2"
    },
    {
      "bufferView": 1,
      "byteOffset": 125440,
      "componentType": 5126,
      "count": 3920,
      "max": [
        0.99755859375,
        0.91162109375
      ],
      "min": [
        0.0019083023071289062,
        0.0019083023071289062
      ],
      "type": "VEC2"
    },
    {
      "bufferView": 1,
      "byteOffset": 156800,
      "componentType": 5126,
      "count": 3920,
      "max": [
        0.99755859375,
        0.91162109375
      ],
      "min": [
        0.0019083023071289062,
        0.0019083023071289062
      ],
      "type": "VEC2"
    },
    {
      "bufferView": 0,
      "componentType": 5125,
      "count": 13680,
      "type": "SCALAR"
    }
  ],
  "asset": {
    "extras": {
      "author": "ugly kid (https://sketchfab.com/ugly_kid)",
      "license": "CC-BY-4.0 (http://creativecommons.org/licenses/by/4.0/)",
      "source": "https://sketchfab.com/3d-models/metal-gate-f5000327853440158f91fd5c1ceabc7c",
      "title": "Metal Gate"
    },
    "generator": "Sketchfab-15.32.0",
    "version": "2.0"
  },
  "bufferViews": [
    {
      "buffer": 0,
      "byteLength": 54720,
      "name": "floatBufferViews",
      "target": 34963
    },
    {
      "buffer": 0,
      "byteLength": 188160,
      "byteOffset": 54720,
      "byteStride": 8,
      "name": "floatBufferViews",
      "target": 34962
    },
    {
      "buffer": 0,
      "byteLength": 94080,
      "byteOffset": 242880,
      "byteStride": 12,
      "name": "floatBufferViews",
      "target": 34962
    },
    {
      "buffer": 0,
      "byteLength": 62720,
      "byteOffset": 336960,
      "byteStride": 16,
      "name": "floatBufferViews",
      "target": 34962
    }
  ],
  "buffers": [
    {
      "byteLength": 399680,
      "uri": "scene.bin"
    }
  ],
  "extensionsUsed": [
    "KHR_materials_specular"
  ],
  "images": [
    {
      "uri": "textures/MI_WoodTrim_01a_SM_MetalGate_01a_baseColor.jpeg"
    },
    {
      "uri": "textures/MI_WoodTrim_01a_SM_MetalGate_01a_metallicRoughness.png"
    },
    {
      "uri": "textures/MI_WoodTrim_01a_SM_MetalGate_01a_normal.png"
    },
    {
      "uri": "textures/MI_WoodTrim_01a_SM_MetalGate_01a_specularf0.png"
    }
  ],
  "materials": [
    {
      "extensions": {
        "KHR_materials_specular": {
          "specularColorFactor": [
            1,
            1,
            1
          ],
          "specularFactor": 1,
          "specularTexture": {
            "index": 3,
            "texCoord": 1
          }
        }
      },
      "name": "MI_WoodTrim_01a_SM_MetalGate_01a",
      "normalTexture": {
        "index": 2
      },
      "occlusionTexture": {
        "index": 1
      },
      "pbrMetallicRoughness": {
        "baseColorTexture": {
          "index": 0
        },
        "metallicRoughnessTexture": {
          "index": 1
        }
      }
    }
  ],
  "meshes": [
    {
      "name": "Object_0",
      "primitives": [
        {
          "attributes": {
            "NORMAL": 1,
            "POSITION": 0,
            "TANGENT": 2,
            "TEXCOORD_0": 3,
            "TEXCOORD_1": 4,
            "TEXCOORD_2": 5,
            "TEXCOORD_3": 6,
            "TEXCOORD_4": 7,
            "TEXCOORD_5": 8
          },
          "indices": 9,
          "material": 0,
          "mode": 4
        }
      ]
    }
  ],
  "nodes": [
    {
      "children": [
        1
      ],
      "matrix": [
        1,
        0,
        0,
        0,
        0,
        2.220446049250313e-16,
        -1,
        0,
        0,
        1,
        2.220446049250313e-16,
        0,
        0,
        0,
        0,
        1
      ],
      "name": "Sketchfab_model"
    },
    {
      "children": [
        2
      ],
      "name": "root"
    },
    {
      "children": [
        3
      ],
      "matrix": [
        1,
        0,
        0,
        0,
        0,
        2.220446049250313e-16,
        1,
        0,
        0,
        -1,
        2.220446049250313e-16,
        0,
        0,
        0,
        0,
        1
      ],
      "name": "GLTF_SceneRootNode"
    },
    {
      "children": [
        4
      ],
      "name": "_0"
    },
    {
      "mesh": 0,
      "name": "Object_4"
    }
  ],
  "samplers": [
    {
      "magFilter": 9729,
      "minFilter": 9987,
      "wrapS": 10497,
      "wrapT": 10497
    }
  ],
  "scene": 0,
  "scenes": [
    {
      "name": "Sketchfab_Scene",
      "nodes": [
        0
      ]
    }
  ],
  "textures": [
    {
      "sampler": 0,
      "source": 0
    },
    {
      "sampler": 0,
      "source": 1
    },
    {
      "sampler": 0,
      "source": 2
    },
    {
      "sampler": 0,
      "source": 3
    }
  ]
}
